<svg width="22" height="26" viewBox="0 0 22 26" fill="none" xmlns="http://www.w3.org/2000/svg">
<path d="M18.7782 18.3847L11 26L3.22178 18.3847C1.68342 16.8786 0.635783 14.9596 0.211357 12.8705C-0.213069 10.7815 0.00477503 8.61606 0.837343 6.64819C1.66991 4.68032 3.07981 2.99836 4.88874 1.81499C6.69768 0.63162 8.82441 0 11 0C13.1756 0 15.3023 0.63162 17.1113 1.81499C18.9202 2.99836 20.3301 4.68032 21.1627 6.64819C21.9952 8.61606 22.2131 10.7815 21.7886 12.8705C21.3642 14.9596 20.3166 16.8786 18.7782 18.3847V18.3847ZM11 13.1627C11.6483 13.1627 12.2701 12.9105 12.7285 12.4617C13.1869 12.0129 13.4444 11.4042 13.4444 10.7695C13.4444 10.1347 13.1869 9.52601 12.7285 9.07719C12.2701 8.62837 11.6483 8.37622 11 8.37622C10.3517 8.37622 9.72994 8.62837 9.27152 9.07719C8.8131 9.52601 8.55556 10.1347 8.55556 10.7695C8.55556 11.4042 8.8131 12.0129 9.27152 12.4617C9.72994 12.9105 10.3517 13.1627 11 13.1627Z" fill="white"/>
</svg>
