<svg width="22" height="22" viewBox="0 0 22 22" fill="none" xmlns="http://www.w3.org/2000/svg">
<path d="M0.2673 6.30799L10.439 0.158084C10.61 0.0546422 10.8056 0 11.005 0C11.2043 0 11.3999 0.0546422 11.5709 0.158084L21.7327 6.3091C21.8142 6.35836 21.8817 6.4281 21.9286 6.5115C21.9754 6.59491 22 6.68913 22 6.78498V20.8907C22 21.1849 21.8841 21.4671 21.6778 21.6751C21.4715 21.8831 21.1917 22 20.9 22H1.1C0.808262 22 0.528473 21.8831 0.322182 21.6751C0.115892 21.4671 1.2108e-08 21.1849 1.2108e-08 20.8907V6.78387C-1.99297e-05 6.68802 0.0245936 6.5938 0.07144 6.51039C0.118286 6.42699 0.185767 6.35726 0.2673 6.30799ZM17.9806 7.8499L11.0671 13.8833L4.0117 7.84324L2.5883 9.5338L11.0803 16.8052L19.4194 9.52826L17.9806 7.8499V7.8499Z" fill="white"/>
</svg>
