<svg width="1920" height="592" viewBox="0 0 1920 592" fill="none" xmlns="http://www.w3.org/2000/svg">
<rect width="1920" height="592" fill="#002B79"/>
<g opacity="0.54">
<mask id="mask0_152_217" style="mask-type:alpha" maskUnits="userSpaceOnUse" x="0" y="0" width="1920" height="592">
<rect width="1920" height="592" fill="#484831"/>
</mask>
<g mask="url(#mask0_152_217)">
<path d="M585.165 188.192C596.922 181.404 611.408 181.404 623.165 188.192L750.712 261.832C762.469 268.62 769.712 281.164 769.712 294.741V442.019C769.712 455.595 762.469 468.14 750.712 474.928L623.165 548.567C611.408 555.355 596.922 555.355 585.165 548.567L457.618 474.928C445.861 468.14 438.618 455.595 438.618 442.019V294.74C438.618 281.164 445.861 268.62 457.618 261.832L585.165 188.192Z" fill="black" fill-opacity="0.2"/>
<path d="M235.501 188.192C247.258 181.404 261.744 181.404 273.501 188.192L401.048 261.832C412.805 268.62 420.048 281.164 420.048 294.741V442.019C420.048 455.595 412.805 468.14 401.048 474.928L273.501 548.567C261.744 555.355 247.258 555.355 235.501 548.567L107.954 474.928C96.1967 468.14 88.9539 455.595 88.9539 442.019V294.74C88.9539 281.164 96.1967 268.62 107.954 261.832L235.501 188.192Z" fill="black" fill-opacity="0.2"/>
<path d="M56.454 -123.03C68.2112 -129.818 82.6967 -129.818 94.4539 -123.03L222.001 -49.3911C233.758 -42.6031 241.001 -30.0582 241.001 -16.4822V130.796C241.001 144.372 233.758 156.917 222.001 163.705L94.4539 237.344C82.6967 244.133 68.2112 244.133 56.4539 237.344L-71.093 163.705C-82.8502 156.917 -90.0929 144.372 -90.0929 130.796V-16.4822C-90.0929 -30.0583 -82.8502 -42.6031 -71.0929 -49.3911L56.454 -123.03Z" fill="black" fill-opacity="0.2"/>
<path d="M-112.058 195.565C-100.301 188.777 -85.815 188.777 -74.0578 195.565L53.4891 269.204C65.2464 275.992 72.4891 288.537 72.4891 302.113V449.392C72.4891 462.968 65.2463 475.512 53.4891 482.3L-74.0578 555.94C-85.815 562.728 -100.301 562.728 -112.058 555.94L-239.605 482.3C-251.362 475.512 -258.605 462.968 -258.605 449.392V302.113C-258.605 288.537 -251.362 275.992 -239.605 269.204L-112.058 195.565Z" fill="black" fill-opacity="0.2"/>
<path d="M766.843 -123.03C778.6 -129.818 793.085 -129.818 804.843 -123.03L932.389 -49.3911C944.147 -42.6031 951.389 -30.0582 951.389 -16.4822V130.796C951.389 144.372 944.147 156.917 932.389 163.705L804.843 237.344C793.085 244.133 778.6 244.133 766.843 237.344L639.296 163.705C627.538 156.917 620.296 144.372 620.296 130.796V-16.4822C620.296 -30.0583 627.539 -42.6031 639.296 -49.3911L766.843 -123.03Z" fill="black" fill-opacity="0.2"/>
<path d="M409.278 -123.03C421.035 -129.818 435.521 -129.818 447.278 -123.03L574.825 -49.3911C586.582 -42.6031 593.825 -30.0582 593.825 -16.4822V130.796C593.825 144.372 586.582 156.917 574.825 163.705L447.278 237.344C435.521 244.133 421.035 244.133 409.278 237.344L281.731 163.705C269.974 156.917 262.731 144.372 262.731 130.796V-16.4822C262.731 -30.0583 269.974 -42.6031 281.731 -49.3911L409.278 -123.03Z" fill="black" fill-opacity="0.2"/>
<path d="M1995.16 196.192C2006.92 189.404 2021.41 189.404 2033.16 196.192L2160.71 269.832C2172.47 276.62 2179.71 289.164 2179.71 302.741V450.019C2179.71 463.595 2172.47 476.14 2160.71 482.928L2033.16 556.567C2021.41 563.355 2006.92 563.355 1995.16 556.567L1867.62 482.928C1855.86 476.14 1848.62 463.595 1848.62 450.019V302.74C1848.62 289.164 1855.86 276.62 1867.62 269.832L1995.16 196.192Z" fill="black" fill-opacity="0.2"/>
<path d="M1645.5 196.192C1657.26 189.404 1671.74 189.404 1683.5 196.192L1811.05 269.832C1822.8 276.62 1830.05 289.164 1830.05 302.741V450.019C1830.05 463.595 1822.8 476.14 1811.05 482.928L1683.5 556.567C1671.74 563.355 1657.26 563.355 1645.5 556.567L1517.95 482.928C1506.2 476.14 1498.95 463.595 1498.95 450.019V302.74C1498.95 289.164 1506.2 276.62 1517.95 269.832L1645.5 196.192Z" fill="black" fill-opacity="0.2"/>
<path d="M1466.45 -115.03C1478.21 -121.818 1492.7 -121.818 1504.45 -115.03L1632 -41.3911C1643.76 -34.6031 1651 -22.0582 1651 -8.48215V138.796C1651 152.372 1643.76 164.917 1632 171.705L1504.45 245.344C1492.7 252.133 1478.21 252.133 1466.45 245.344L1338.91 171.705C1327.15 164.917 1319.91 152.372 1319.91 138.796V-8.48216C1319.91 -22.0583 1327.15 -34.6031 1338.91 -41.3911L1466.45 -115.03Z" fill="black" fill-opacity="0.2"/>
<path d="M1297.94 203.565C1309.7 196.777 1324.18 196.777 1335.94 203.565L1463.49 277.204C1475.25 283.992 1482.49 296.537 1482.49 310.113V457.392C1482.49 470.968 1475.25 483.512 1463.49 490.3L1335.94 563.94C1324.18 570.728 1309.7 570.728 1297.94 563.94L1170.4 490.3C1158.64 483.512 1151.4 470.968 1151.4 457.392V310.113C1151.4 296.537 1158.64 283.992 1170.4 277.204L1297.94 203.565Z" fill="black" fill-opacity="0.2"/>
<path d="M1114.16 -107.131C1125.91 -113.919 1140.4 -113.919 1152.16 -107.131L1279.7 -33.4922C1291.46 -26.7041 1298.7 -14.1593 1298.7 -0.583229V146.695C1298.7 160.271 1291.46 172.816 1279.7 179.604L1152.16 253.243C1140.4 260.031 1125.91 260.031 1114.16 253.243L986.61 179.604C974.853 172.816 967.61 160.271 967.61 146.695V-0.583237C967.61 -14.1593 974.853 -26.7041 986.61 -33.4922L1114.16 -107.131Z" fill="black" fill-opacity="0.2"/>
<path d="M1819.28 -115.03C1831.04 -121.818 1845.52 -121.818 1857.28 -115.03L1984.83 -41.3911C1996.58 -34.6031 2003.83 -22.0582 2003.83 -8.48215V138.796C2003.83 152.372 1996.58 164.917 1984.83 171.705L1857.28 245.344C1845.52 252.133 1831.04 252.133 1819.28 245.344L1691.73 171.705C1679.97 164.917 1672.73 152.372 1672.73 138.796V-8.48216C1672.73 -22.0583 1679.97 -34.6031 1691.73 -41.3911L1819.28 -115.03Z" fill="black" fill-opacity="0.2"/>
<path d="M934.157 203.97C945.914 197.182 960.4 197.182 972.157 203.97L1099.7 277.609C1111.46 284.397 1118.7 296.942 1118.7 310.518V457.796C1118.7 471.372 1111.46 483.917 1099.7 490.705L972.157 564.344C960.4 571.133 945.914 571.133 934.157 564.344L806.61 490.705C794.853 483.917 787.61 471.372 787.61 457.796V310.518C787.61 296.942 794.853 284.397 806.61 277.609L934.157 203.97Z" fill="black" fill-opacity="0.2"/>
</g>
</g>
</svg>
