<svg width="285" height="74" viewBox="0 0 285 74" fill="none" xmlns="http://www.w3.org/2000/svg">
<g clip-path="url(#clip0_152_221)">
<g opacity="0.8">
<path opacity="0.5" d="M42.7409 63.1584L42.432 64.8497H39.5799L37.9788 73.8973H35.8062L37.4073 64.8497H34.5449L34.8487 63.1584H42.7409Z" fill="white"/>
<path opacity="0.5" d="M48.1779 64.8343L47.6631 67.6206H51.2669L50.9734 69.281H47.3697L46.8549 72.1855H50.9374L50.6285 73.8973H44.4043L46.3143 63.1431H52.5539L52.2605 64.8343H48.1779Z" fill="white"/>
<path opacity="0.5" d="M56.2757 65.6722C56.8773 64.8505 57.6638 64.1814 58.5719 63.7188C59.4686 63.2541 60.4651 63.0141 61.4754 63.0197C62.551 62.9812 63.6082 63.3053 64.4768 63.9398C64.8779 64.2503 65.2129 64.6375 65.4622 65.0789C65.7114 65.5202 65.87 66.0068 65.9286 66.5101H63.4318C63.291 66.049 62.9897 65.6534 62.5823 65.3947C62.1361 65.1306 61.6231 65.0003 61.1048 65.0193C60.4944 65.0153 59.8926 65.1638 59.3544 65.4512C58.8087 65.7433 58.3436 66.1653 58.0004 66.6798C57.6266 67.2353 57.3773 67.8648 57.2693 68.5253C57.2232 68.7955 57.1974 69.0687 57.1921 69.3427C57.1728 69.702 57.2262 70.0616 57.3492 70.3998C57.4721 70.7381 57.6621 71.0482 57.9077 71.3115C58.1664 71.5584 58.473 71.7496 58.8086 71.8734C59.1442 71.9972 59.5017 72.0509 59.8589 72.0312C60.4246 72.0418 60.9837 71.9092 61.4842 71.6459C61.9847 71.3825 62.4103 70.9969 62.7213 70.525H65.2028C64.6834 71.589 63.8684 72.4812 62.8552 73.0954C61.8553 73.704 60.7055 74.0225 59.5346 74.0155C58.7018 74.0315 57.8779 73.8426 57.1355 73.4655C56.4603 73.1197 55.9017 72.5834 55.5293 71.9233C55.1401 71.2225 54.943 70.4317 54.9578 69.6306C54.9596 68.2143 55.4161 66.836 56.2603 65.6979L56.2757 65.6722Z" fill="white"/>
<path opacity="0.5" d="M79.2675 63.1584L77.3833 73.8973H75.2108L76.0293 69.2707H71.4371L70.6185 73.8973H68.4512L70.3611 63.1584H72.5182L71.7306 67.6051H76.364L77.1465 63.1584H79.2675Z" fill="white"/>
<path opacity="0.5" d="M90.7018 73.8973H88.5293L84.9718 66.5256L83.6591 73.8973H81.502L83.412 63.1431H85.5691L89.1728 70.5251L90.4804 63.1431H92.6375L90.7018 73.8973Z" fill="white"/>
<path opacity="0.5" d="M97.4618 73.4243C96.7841 73.0543 96.2253 72.4999 95.8504 71.8255C95.4646 71.1051 95.2697 70.2982 95.2841 69.4814C95.2646 68.3201 95.5485 67.1738 96.1079 66.1554C96.6409 65.1898 97.43 64.3895 98.3885 63.8421C99.3851 63.275 100.516 62.9856 101.663 63.0042C102.501 62.9876 103.329 63.182 104.072 63.5696C104.751 63.9363 105.31 64.4893 105.684 65.1632C106.073 65.8788 106.27 66.6829 106.255 67.4971C106.275 68.666 105.993 69.8204 105.436 70.8488C104.909 71.8188 104.119 72.6206 103.156 73.1621C102.152 73.7303 101.015 74.0213 99.8609 74.0052C99.0244 74.0212 98.198 73.8211 97.4618 73.4243ZM102.208 71.4349C102.802 71.0446 103.276 70.4985 103.578 69.8567C103.914 69.1863 104.09 68.4473 104.093 67.6976C104.114 67.3362 104.062 66.9742 103.939 66.6333C103.817 66.2924 103.628 65.9796 103.382 65.7133C103.118 65.463 102.806 65.2695 102.464 65.1448C102.122 65.0201 101.758 64.9669 101.395 64.9884C100.676 64.9772 99.969 65.1813 99.3667 65.5745C98.78 65.9567 98.307 66.4894 97.9972 67.1167C97.6699 67.7871 97.5041 68.5248 97.5133 69.2706C97.4929 69.6319 97.5443 69.9937 97.6644 70.3351C97.7846 70.6766 97.9712 70.9909 98.2135 71.26C98.4739 71.5125 98.7843 71.7079 99.1247 71.8336C99.4651 71.9593 99.8281 72.0126 100.19 71.99C100.902 72.0074 101.602 71.8143 102.203 71.4349H102.208Z" fill="white"/>
<path opacity="0.5" d="M111.361 72.2472H114.903L114.614 73.8973H108.91L110.82 63.1584H112.977L111.361 72.2472Z" fill="white"/>
<path opacity="0.5" d="M120.628 73.4243C119.95 73.0543 119.391 72.4999 119.016 71.8255C118.631 71.1051 118.436 70.2982 118.45 69.4814C118.431 68.3201 118.715 67.1738 119.274 66.1554C119.807 65.1898 120.596 64.3895 121.555 63.8421C122.551 63.275 123.682 62.9856 124.829 63.0042C125.667 62.9876 126.495 63.182 127.238 63.5696C127.917 63.9363 128.476 64.4893 128.85 65.1632C129.239 65.8788 129.436 66.6829 129.421 67.4971C129.441 68.666 129.159 69.8204 128.602 70.8488C128.075 71.8188 127.285 72.6206 126.322 73.1621C125.318 73.7303 124.181 74.0213 123.027 74.0052C122.19 74.0212 121.364 73.8211 120.628 73.4243ZM125.374 71.4349C125.968 71.0446 126.442 70.4985 126.744 69.8567C127.08 69.1863 127.256 68.4473 127.259 67.6976C127.28 67.3362 127.228 66.9742 127.106 66.6333C126.983 66.2924 126.794 65.9796 126.548 65.7133C126.284 65.463 125.972 65.2695 125.63 65.1448C125.288 65.0201 124.924 64.9669 124.561 64.9884C123.842 64.9772 123.135 65.1813 122.533 65.5745C121.946 65.9567 121.473 66.4894 121.163 67.1167C120.836 67.7871 120.67 68.5248 120.679 69.2706C120.659 69.6319 120.71 69.9937 120.83 70.3351C120.951 70.6766 121.137 70.9909 121.379 71.26C121.64 71.5125 121.95 71.7079 122.291 71.8336C122.631 71.9593 122.994 72.0126 123.356 71.99C124.069 72.0084 124.772 71.8152 125.374 71.4349Z" fill="white"/>
<path opacity="0.5" d="M133.746 65.6722C134.356 64.8521 135.147 64.1836 136.057 63.7187C136.958 63.2551 137.958 63.0153 138.971 63.0196C140.04 62.9762 141.094 63.2871 141.968 63.9038C142.36 64.201 142.688 64.574 142.933 65.0005C143.178 65.4271 143.335 65.8985 143.394 66.3867H140.912C140.764 65.9567 140.469 65.5927 140.078 65.3586C139.638 65.1087 139.137 64.9859 138.632 65.0039C138.012 65.0005 137.4 65.1504 136.852 65.4401C136.304 65.7298 135.837 66.1504 135.491 66.6643C135.112 67.218 134.859 67.848 134.75 68.5098C134.695 68.7892 134.669 69.0734 134.673 69.358C134.652 69.7209 134.707 70.0842 134.836 70.4242C134.965 70.7643 135.163 71.0735 135.419 71.332C135.983 71.835 136.724 72.0939 137.478 72.0518C138.242 72.0659 138.989 71.8333 139.61 71.3886C140.236 70.9268 140.711 70.2899 140.974 69.5585H137.278L137.556 67.9238H143.378L143.038 69.8001C142.744 70.5621 142.305 71.2602 141.746 71.8564C141.154 72.501 140.443 73.0247 139.651 73.3986C138.837 73.7848 137.947 73.9834 137.046 73.9795C136.209 73.9982 135.381 73.8073 134.637 73.4243C133.961 73.074 133.398 72.5392 133.015 71.8821C132.622 71.1806 132.423 70.3876 132.438 69.5842C132.443 68.1723 132.901 66.7992 133.746 65.667V65.6722Z" fill="white"/>
<path opacity="0.5" d="M156.383 63.1584L151.518 70.1549L150.854 73.8973H148.682L149.361 70.1549L146.941 63.1584H149.377L150.808 68.0319L153.953 63.1584H156.383Z" fill="white"/>
<path opacity="0.5" d="M165.278 73.27C164.945 73.0434 164.676 72.7355 164.496 72.3756C164.315 72.0157 164.23 71.6158 164.249 71.2138C164.252 71.0745 164.262 70.9355 164.279 70.7974H166.483C166.455 70.9893 166.472 71.185 166.532 71.3694C166.591 71.5539 166.693 71.7222 166.828 71.8615C166.989 72.0066 167.178 72.1178 167.383 72.1884C167.588 72.2591 167.806 72.2878 168.022 72.2728C168.46 72.2979 168.895 72.1827 169.263 71.9438C169.412 71.8365 169.531 71.6937 169.61 71.5285C169.689 71.3632 169.726 71.1808 169.716 70.9978C169.721 70.8191 169.68 70.6421 169.598 70.483C169.517 70.324 169.396 70.1881 169.247 70.088C168.785 69.7859 168.291 69.5343 167.775 69.3374C167.263 69.1294 166.762 68.8926 166.277 68.628C165.884 68.4065 165.546 68.0989 165.288 67.7284C165.003 67.2981 164.861 66.7891 164.882 66.2736C164.867 65.6549 165.047 65.0473 165.397 64.5361C165.753 64.033 166.244 63.6395 166.812 63.4C167.463 63.1228 168.165 62.9862 168.872 62.999C169.55 62.9824 170.224 63.1103 170.849 63.3743C171.371 63.5923 171.813 63.9656 172.115 64.4435C172.403 64.9301 172.529 65.4951 172.475 66.0577H170.179V65.8881C170.184 65.7306 170.153 65.574 170.088 65.4305C170.023 65.287 169.925 65.1604 169.803 65.0604C169.51 64.8323 169.145 64.7173 168.774 64.7365C168.356 64.7167 167.943 64.836 167.6 65.0758C167.458 65.1824 167.343 65.3216 167.266 65.4818C167.189 65.642 167.152 65.8184 167.157 65.996C167.153 66.2442 167.243 66.4849 167.41 66.6694C167.59 66.8643 167.8 67.0291 168.032 67.1578C168.28 67.2966 168.635 67.4765 169.098 67.6718C169.612 67.8895 170.11 68.1402 170.591 68.4224C170.997 68.6605 171.347 68.981 171.621 69.3632C171.904 69.7849 172.048 70.2846 172.033 70.7923C172.038 71.381 171.858 71.9566 171.518 72.4373C171.16 72.9379 170.67 73.3294 170.102 73.5682C169.427 73.854 168.699 73.9942 167.966 73.9795C167.017 74.0314 166.077 73.7832 165.278 73.27Z" fill="white"/>
<path opacity="0.5" d="M179.03 64.8343L178.515 67.6206H182.118L181.83 69.281H178.226L177.712 72.1855H181.794L181.485 73.8973H175.256L177.166 63.1431H183.405L183.112 64.8343H179.03Z" fill="white"/>
<path opacity="0.5" d="M193.898 63.9037C194.174 64.1447 194.393 64.4441 194.54 64.7802C194.686 65.1163 194.755 65.4807 194.742 65.8469C194.742 66.0482 194.726 66.2492 194.696 66.4483C194.569 67.1599 194.241 67.8202 193.749 68.3504C193.197 68.9444 192.48 69.3597 191.689 69.543L193.491 73.8971H190.979L189.378 69.7126H188.348L187.612 73.8971H185.439L187.349 63.1582H191.386C192.286 63.0891 193.181 63.3545 193.898 63.9037ZM192.513 66.1244C192.523 65.9556 192.494 65.7867 192.43 65.6302C192.366 65.4737 192.268 65.3334 192.142 65.2197C191.818 64.9794 191.418 64.8643 191.015 64.8958H189.213L188.642 68.1087H190.443C190.939 68.1334 191.428 67.9823 191.823 67.6821C192.178 67.3779 192.412 66.9565 192.482 66.4945C192.503 66.3095 192.513 66.1861 192.513 66.1244Z" fill="white"/>
<path opacity="0.5" d="M200.71 63.1584L202.141 71.6971L206.609 63.1584H208.906L203.068 73.8973H200.426L198.367 63.1584H200.71Z" fill="white"/>
<path opacity="0.5" d="M214.356 63.1584L212.462 73.8973H210.289L212.199 63.1584H214.356Z" fill="white"/>
<path opacity="0.5" d="M218.234 65.6722C218.837 64.8516 219.623 64.1828 220.53 63.7188C221.427 63.2541 222.423 63.0141 223.434 63.0197C224.509 62.9812 225.566 63.3053 226.435 63.9398C226.836 64.2503 227.171 64.6375 227.42 65.0789C227.67 65.5202 227.828 66.0068 227.887 66.5101H225.405C225.265 66.049 224.963 65.6534 224.556 65.3947C224.11 65.1306 223.597 65.0003 223.078 65.0193C222.468 65.0153 221.866 65.1638 221.328 65.4512C220.782 65.7433 220.317 66.1653 219.974 66.6798C219.6 67.2353 219.351 67.8648 219.243 68.5253C219.197 68.7955 219.171 69.0687 219.166 69.3427C219.146 69.702 219.2 70.0616 219.323 70.3998C219.446 70.7381 219.636 71.0482 219.881 71.3115C220.14 71.5584 220.447 71.7496 220.782 71.8734C221.118 71.9972 221.475 72.0509 221.832 72.0312C222.398 72.0418 222.957 71.9092 223.458 71.6459C223.958 71.3825 224.384 70.9969 224.695 70.525H227.197C226.678 71.589 225.863 72.4812 224.849 73.0954C223.849 73.704 222.7 74.0225 221.529 74.0155C220.696 74.0315 219.872 73.8426 219.13 73.4655C218.454 73.1197 217.896 72.5834 217.523 71.9233C217.134 71.2225 216.937 70.4317 216.952 69.6306C216.954 68.2143 217.41 66.836 218.254 65.6979L218.234 65.6722Z" fill="white"/>
<path opacity="0.5" d="M234.188 64.8343L233.673 67.6206H237.277L236.983 69.281H233.379L232.865 72.1855H236.978L236.674 73.8973H230.414L232.345 63.1431H238.584L238.291 64.8343H234.188Z" fill="white"/>
<path opacity="0.5" d="M242.038 73.2701C241.705 73.0434 241.436 72.7355 241.255 72.3756C241.075 72.0157 240.99 71.6158 241.008 71.2138C241.011 71.0744 241.023 70.9352 241.044 70.7974H243.243C243.216 70.9897 243.233 71.1856 243.294 71.3701C243.354 71.5546 243.457 71.7227 243.593 71.8615C243.754 72.0066 243.943 72.1178 244.148 72.1885C244.353 72.2591 244.57 72.2878 244.787 72.2728C245.225 72.2979 245.66 72.1827 246.028 71.9438C246.175 71.8356 246.294 71.6926 246.373 71.5276C246.452 71.3625 246.489 71.1806 246.481 70.9979C246.486 70.8191 246.445 70.6421 246.363 70.483C246.281 70.324 246.161 70.1882 246.012 70.088C245.55 69.7859 245.056 69.5343 244.54 69.3374C244.026 69.1293 243.524 68.8925 243.037 68.628C242.644 68.4078 242.307 68.0999 242.053 67.7284C241.766 67.2987 241.622 66.7897 241.641 66.2736C241.627 65.655 241.807 65.0475 242.156 64.5361C242.51 64.0307 243.002 63.6366 243.572 63.4C244.222 63.1227 244.924 62.986 245.631 62.999C246.311 62.9823 246.987 63.1102 247.613 63.3743C248.134 63.5923 248.575 63.9658 248.875 64.4435C249.164 64.9295 249.292 65.4946 249.24 66.0577H246.944V65.8881C246.949 65.7302 246.917 65.5733 246.85 65.4298C246.784 65.2863 246.686 65.1599 246.563 65.0604C246.27 64.8323 245.905 64.7173 245.534 64.7366C245.117 64.7175 244.706 64.8368 244.365 65.0759C244.221 65.1812 244.105 65.3201 244.027 65.4805C243.949 65.6409 243.911 65.8178 243.917 65.996C243.914 66.2449 244.006 66.4857 244.174 66.6695C244.354 66.8654 244.564 67.0304 244.797 67.1578C245.044 67.2966 245.395 67.4765 245.858 67.6719C246.373 67.8885 246.874 68.1392 247.356 68.4224C247.749 68.6649 248.089 68.9851 248.355 69.3632C248.642 69.7832 248.788 70.2838 248.772 70.7923C248.775 71.3807 248.595 71.9555 248.257 72.4373C247.898 72.9392 247.406 73.3309 246.836 73.5682C246.163 73.8541 245.436 73.9943 244.705 73.9795C243.763 74.0285 242.83 73.7803 242.038 73.2701Z" fill="white"/>
</g>
<path d="M22.8838 48.8107L22.8529 48.8518L22.2969 54.2392H31.0488L32.9228 36.4165L22.8838 48.8107Z" fill="white"/>
<path d="M128.783 54.8201L133.36 11.2632H147.698C151.538 11.2632 154.301 12.3307 155.986 14.4658C157.321 16.1794 157.998 18.527 158.015 21.5086C158.012 22.2986 157.967 23.0879 157.881 23.8733C157.718 25.6053 157.32 27.3071 156.697 28.9317C156.211 30.2215 155.504 31.4167 154.607 32.4633C153.777 33.3836 152.775 34.1328 151.657 34.6687C150.534 35.2204 149.34 35.6147 148.11 35.8407C146.766 36.0686 145.405 36.1787 144.042 36.1697H140.228L138.256 54.8201H128.783ZM140.912 29.5743H143.934C145.726 29.5743 146.956 29.1373 147.636 28.2582C148.316 27.3792 148.758 25.8678 148.99 23.7139C149.057 22.9274 149.093 22.2077 149.093 21.56C149.093 21.2464 149.093 20.9482 149.093 20.6655C149.088 20.2674 148.993 19.8755 148.814 19.5194C148.636 19.1633 148.379 18.8521 148.063 18.6092C147.428 18.1329 146.454 17.8929 145.139 17.8895H142.148L140.912 29.5743Z" fill="white"/>
<path d="M171.461 55.4267C169.397 55.4841 167.341 55.1581 165.396 54.4654C163.877 53.92 162.563 52.9201 161.633 51.602C160.734 50.2575 160.153 48.7263 159.934 47.1245C159.789 46.1597 159.718 45.1852 159.723 44.2097C159.727 43.155 159.789 42.1013 159.908 41.0533L161.592 24.9476C162.086 20.2216 163.459 16.6574 165.71 14.255C167.962 11.8526 171.442 10.6531 176.151 10.6565C180.856 10.6565 184.101 11.856 185.886 14.255C187.276 16.1296 187.963 18.6999 187.945 21.966C187.943 22.9568 187.89 23.9468 187.786 24.9322L186.102 41.0379C185.612 45.7536 184.221 49.3264 181.932 51.7562C179.643 54.1861 176.153 55.4095 171.461 55.4267ZM172.171 48.7438C172.825 48.762 173.472 48.6115 174.05 48.3068C174.57 48.0169 174.984 47.5707 175.234 47.0319C175.495 46.5032 175.699 45.9484 175.842 45.3766C175.99 44.7188 176.098 44.0528 176.166 43.382L178.329 22.6292C178.38 21.8957 178.406 21.2103 178.406 20.5729V20.0999C178.417 19.7198 178.346 19.3417 178.199 18.991C178.051 18.6404 177.83 18.3252 177.551 18.0667C177.272 17.8082 176.94 17.6124 176.579 17.4922C176.217 17.3721 175.835 17.3305 175.456 17.3703C174.809 17.3493 174.168 17.4925 173.592 17.7866C173.083 18.0691 172.677 18.5068 172.434 19.0358C172.183 19.5517 171.988 20.0928 171.852 20.65C171.709 21.3014 171.604 21.9605 171.538 22.624L169.381 43.3769C169.309 44.1994 169.278 44.9705 169.278 45.6902V45.9524C169.251 46.3342 169.308 46.7172 169.445 47.0745C169.583 47.4318 169.797 47.7547 170.073 48.0204C170.349 48.2861 170.68 48.488 171.042 48.6121C171.405 48.7362 171.79 48.7795 172.171 48.7387V48.7438Z" fill="white"/>
<path d="M190.695 54.8201L195.272 11.2632H204.719L200.142 54.8201H190.695Z" fill="white"/>
<path d="M206.748 54.8201L211.325 11.2632H217.981L224.875 32.5713L227.114 11.2632H234.981L230.399 54.8201H224.036L217.271 31.939L214.851 54.8201H206.748Z" fill="white"/>
<path d="M240.978 54.8201L244.823 18.2493H238.059L238.795 11.2632H261.74L261.004 18.2493H254.312L250.44 54.8201H240.978Z" fill="white"/>
<path d="M260.953 54.8201L265.53 11.2632H285L284.341 17.7507H274.318L273.185 28.6798H280.815L280.13 35.2752H272.501L271.136 48.4097H281.237L280.552 54.8201H260.953Z" fill="white"/>
<path d="M67.1993 54.8203C65.43 54.8787 63.6702 54.5378 62.0511 53.823C60.75 53.2199 59.67 52.226 58.9622 50.9802C58.2237 49.6061 57.7472 48.107 57.5567 46.5592C57.4406 45.7074 57.3838 44.8486 57.3868 43.9889C57.3901 42.9211 57.4641 41.8546 57.6082 40.7965L59.024 27.3896C59.1974 25.3832 59.607 23.4041 60.2441 21.4933C60.7914 19.8896 61.6175 18.3948 62.6844 17.0774C63.7588 15.7879 65.1519 14.8009 66.7257 14.2141C68.6056 13.5337 70.5956 13.2078 72.5947 13.2528C74.4602 13.2038 76.3198 13.484 78.0878 14.0804C79.4307 14.5352 80.6103 15.3735 81.4805 16.4914C82.2619 17.5985 82.7893 18.864 83.025 20.1978C83.1766 21.06 83.2507 21.9339 83.2463 22.8093C83.2441 23.582 83.2029 24.354 83.1228 25.1226L82.8551 27.6107H74.2936L74.6128 24.4903C74.6951 23.565 74.7363 22.727 74.7363 21.9765C74.7639 21.3105 74.5313 20.6598 74.0876 20.1618C73.8191 19.9124 73.5013 19.7219 73.1547 19.6024C72.808 19.4829 72.4401 19.437 72.0747 19.4678C71.5411 19.4545 71.0119 19.5672 70.5302 19.7968C70.1354 19.986 69.7847 20.2557 69.5006 20.5885C69.213 20.9658 68.9934 21.3902 68.8519 21.8428C68.6897 22.3091 68.5624 22.7868 68.471 23.2719C68.3989 23.6935 68.3319 24.2281 68.265 24.881L66.3602 43.1612C66.3139 43.7113 66.2881 44.2408 66.2881 44.7445C66.2865 45.1187 66.3036 45.4927 66.3396 45.8652C66.3703 46.5874 66.6589 47.2749 67.153 47.8032C67.4313 48.0644 67.7606 48.2655 68.1202 48.3937C68.4799 48.522 68.8622 48.5747 69.2432 48.5487C71.6457 48.5487 73.0443 46.6791 73.439 42.9402L73.9023 38.5295H70.175L70.7362 33.2654H82.3814L80.1831 54.2239H74.3554L74.2061 50.7643C72.7234 53.4717 70.3878 54.8237 67.1993 54.8203Z" fill="white"/>
<path d="M87.8281 54.2341L92.0754 13.8232H100.863L99.1593 30.2014H105.651L107.36 13.8232H116.148L111.901 54.2341H103.123L105.003 36.4936H98.4901L96.6059 54.2341H87.8281Z" fill="white"/>
<path d="M17.3805 31.0753L16.7781 36.8535L16.7421 37.239V37.2493L16.2118 42.2203L8.48438 31.9801L9.09701 26.1763L17.3805 31.0753Z" fill="white"/>
<path d="M35.8064 13.8181L35.5078 16.6763L25.8652 24.8654L27.0184 13.8181H35.8064Z" fill="white"/>
<path d="M34.0604 30.3916L23.7949 44.5387L24.6495 36.4987L25.3548 29.934L25.4784 28.7105C25.5865 28.546 25.6946 28.3867 25.8079 28.2273C26.0203 28.0701 26.2216 27.8984 26.4102 27.7133C26.7088 27.4562 26.9817 27.1992 27.2545 26.9165C27.3126 26.9163 27.3696 26.9003 27.4193 26.8702C27.6715 26.68 27.9341 26.4795 28.1555 26.279C28.2071 26.2605 28.2556 26.2345 28.2996 26.2019L28.5313 25.9706C28.5735 25.9863 28.619 25.9917 28.6637 25.9863C28.7085 25.981 28.7513 25.965 28.7887 25.9398L29.0924 25.7033C29.1703 25.6934 29.2436 25.6613 29.3035 25.6108C29.4339 25.4977 29.5575 25.3794 29.6742 25.256C30.3502 24.7528 30.9917 24.205 31.5945 23.6162C31.8022 23.4852 31.9781 23.3096 32.1093 23.1021C32.135 23.061 32.1505 23.0147 32.1762 22.9736C32.202 22.9325 32.2998 22.8296 32.3667 22.7628C32.4309 22.7842 32.4998 22.7878 32.5659 22.7734C32.6321 22.7589 32.6931 22.7268 32.7425 22.6805C32.8558 22.5777 32.9587 22.4801 33.0617 22.367C33.105 22.4001 33.1556 22.4226 33.2093 22.4324C33.263 22.4422 33.3183 22.4392 33.3706 22.4235C33.7236 22.2659 34.0213 22.0063 34.2252 21.6781C34.3028 21.7022 34.3861 21.7001 34.4624 21.6722C34.5386 21.6444 34.6036 21.5922 34.6474 21.5239C34.7966 21.2874 34.946 21.0561 35.0695 20.8093L34.0604 30.3916Z" fill="white"/>
<path d="M56.0222 8.24046L59.5281 0.0153809L50.1738 1.14116C51.6241 1.80396 52.9044 2.78762 53.9176 4.0176C54.9309 5.24758 55.6506 6.69164 56.0222 8.24046Z" fill="white"/>
<path d="M28.6498 25.7446L20.3818 32.7976L15.4086 29.9445L0 20.7427L20.9378 48.4766L52.1566 5.4646L28.6498 25.7446Z" fill="white"/>
<path d="M43.2238 21.7502L39.8105 54.2341H48.578L52.7943 14.1112L52.9282 12.3685L53.2216 9.14014L43.2238 21.7502Z" fill="white"/>
<path d="M10.4813 13.8181L10.4093 14.4864H10.3938L9.44141 23.5494L17.7249 28.4999L19.1818 14.4864L19.3517 13.8181H10.4813Z" fill="white"/>
<path d="M14.5339 52.8257L15.2032 46.5027L7.48083 36.2676L5.66351 53.5659L5.56055 54.044H14.3846L14.4412 53.5659H14.4515L14.5339 52.8257Z" fill="white"/>
</g>
<defs>
<clipPath id="clip0_152_221">
<rect width="285" height="74" fill="white"/>
</clipPath>
</defs>
</svg>
