<svg width="113" height="110" viewBox="0 0 113 110" fill="none" xmlns="http://www.w3.org/2000/svg">
<path d="M0 0V109.383H113C113 48.9717 62.4073 0 0 0Z" fill="#E6E1F8"/>
<g clip-path="url(#clip0_152_114)">
<path d="M80.0006 82.4826C79.64 82.9518 79.3269 83.4682 78.9112 83.8841C75.071 87.7248 71.2183 91.5564 67.3531 95.3789C66.1285 96.5942 65.1517 96.5892 63.9258 95.3727C62.6736 94.1314 61.4214 92.89 60.1691 91.6487C59.0421 90.5315 58.9682 89.7792 59.8298 88.4845C59.0434 87.4914 58.0303 86.9266 56.7481 86.8285C55.593 86.7517 54.5029 86.2714 53.6713 85.473C52.6019 84.4613 51.5563 83.4235 50.5145 82.3833C50.0286 81.8992 50.0136 81.3666 50.4293 80.9669C50.825 80.5871 51.3785 80.628 51.8656 81.101C52.8173 82.0254 53.7627 82.9568 54.7019 83.8953C55.3074 84.5327 56.1305 84.9239 57.011 84.9926C58.6965 85.1254 60.0627 85.8876 61.1146 87.1029L70.7254 77.6128C69.7587 76.698 69.0499 75.5609 68.9109 74.1768C68.8322 73.2093 68.8167 72.2378 68.8646 71.2683C68.9 70.6595 68.797 70.0505 68.5634 69.4864C68.3298 68.9222 67.9714 68.4172 67.5147 68.0086C66.1736 66.7412 64.8988 65.4018 63.5727 64.1207C62.4958 63.0755 60.9705 62.8794 59.7446 63.6763C60.5661 64.4484 61.3725 65.1907 62.1577 65.9542C62.5133 66.3005 62.5471 66.7263 62.2704 67.1396C61.9936 67.553 61.5892 67.6126 61.1647 67.4599C60.9618 67.3867 60.789 67.2116 60.6287 67.0478C59.7859 66.2198 58.9507 65.3844 57.9777 64.4174V65.1274C57.9777 66.9025 57.9164 68.6814 57.9915 70.454C58.1042 73.1403 55.7826 74.6522 53.6576 73.9087C53.5893 73.9015 53.5204 73.9015 53.4522 73.9087C53.4522 74.4797 53.4522 75.0519 53.4522 75.623C53.4422 78.3092 51.5526 79.702 48.8978 78.9237C48.5435 80.0968 47.7959 80.9173 46.6 81.3158C46.4372 81.3704 46.3145 81.5516 46.183 81.6882C45.0197 82.8414 43.8514 83.9908 42.6981 85.154C41.7101 86.147 40.543 86.7466 39.1255 86.8546C37.8883 86.949 36.9278 87.5498 36.1727 88.5019C37.0217 89.7258 36.9566 90.5426 35.9223 91.5792C34.6008 92.8975 33.2759 94.2124 31.9477 95.5241C30.9259 96.5346 29.8377 96.5458 28.8322 95.5502C26.2083 92.9517 23.5887 90.3506 20.9732 87.7471C20.8486 87.6367 20.738 87.5117 20.6439 87.3747C20.4034 86.9763 20.4247 86.5803 20.7553 86.2401C20.8926 86.08 21.0851 85.9763 21.2953 85.9492C21.5055 85.9221 21.7184 85.9736 21.8924 86.0937C22.0799 86.2229 22.2518 86.3733 22.4045 86.5418C25.0442 89.1486 27.6826 91.7554 30.2935 94.3362L34.7076 89.8996L22.3319 77.6848L17.9366 82.0717C18.1469 82.289 18.4112 82.5683 18.6879 82.8389C19.7548 83.9015 19.9314 84.3744 19.4392 84.8784C18.9221 85.4085 18.4612 85.2446 17.3443 84.1336C17.0938 83.8853 16.8434 83.6433 16.5929 83.3888C15.8316 82.5732 15.8028 81.4473 16.5829 80.6578C18.0505 79.1633 19.5373 77.6877 21.0433 76.2312C21.841 75.4603 22.8115 75.5063 23.9147 76.3194C24.7362 75.6279 25.2283 74.759 25.2721 73.6765C25.3097 72.7493 25.2834 71.8145 25.2896 70.8897C25.3009 69.3753 25.8206 68.0669 26.9063 66.9894C28.2887 65.6157 29.6716 64.2415 31.0549 62.8669C31.9178 61.9962 33.0616 61.4533 34.2869 61.3326C33.5205 58.3807 33.9425 55.4102 33.9287 52.4657C33.9287 51.2343 34.5874 50.1829 35.4665 49.3028C36.0926 48.6722 36.7425 48.0615 37.3598 47.4123C37.7416 47.0295 38.0309 46.5659 38.2059 46.0563C38.381 45.5467 38.4372 45.0045 38.3704 44.4703C36.6536 44.0358 36.2717 43.538 36.2717 41.7654C36.2717 39.9928 36.2717 38.2549 36.2717 36.5009C36.2717 35.0758 37.0793 34.29 38.5257 34.29C44.1924 34.29 49.8583 34.29 55.5234 34.29C56.9459 34.29 57.7436 35.0684 57.7473 36.4587C57.7523 38.3794 57.7523 40.2998 57.7473 42.2197C57.7473 43.4077 57.2464 44.0333 56.0931 44.3759C56.0029 44.4143 55.923 44.4731 55.8599 44.5477C55.7968 44.6224 55.7523 44.7106 55.73 44.8054C55.6461 45.8544 55.9153 46.809 56.6203 47.6208C57.5745 48.7194 57.9802 50.0042 57.9765 51.4429C57.9673 54.7051 57.9706 57.9678 57.9865 61.2309C57.9865 61.5548 58.1643 61.8776 58.2795 62.2674C59.5718 61.4953 60.784 61.1502 62.1238 61.386C63.1828 61.5555 64.1607 62.0526 64.9176 62.8061C66.3213 64.189 67.7125 65.583 69.1138 66.9683C70.0506 67.8893 70.6229 69.1129 70.7266 70.4168C71.6696 70.4391 72.1041 70.7495 72.1041 71.354C72.1041 71.9585 71.612 72.3024 70.7817 72.2515C70.5977 73.792 70.798 75.1997 72.0941 76.2908C72.3289 76.1272 72.5735 75.978 72.8266 75.8439C73.5905 75.4926 74.4082 75.6478 75.0619 76.2883C76.5128 77.7109 77.9537 79.1438 79.3845 80.5871C79.635 80.844 79.8003 81.1879 80.0107 81.492L80.0006 82.4826ZM38.026 62.0203V61.36C38.026 60.491 38.0085 59.6221 38.0373 58.7531C38.0561 58.161 38.4443 57.806 38.979 57.8085C39.5137 57.811 39.8655 58.171 39.8968 58.768C39.9069 58.9542 39.8968 59.1404 39.8968 59.3254C39.8968 64.7352 39.8968 70.1445 39.8968 75.5534C39.8858 75.8411 39.9171 76.1288 39.9895 76.4075C40.0434 76.5862 40.1363 76.751 40.2616 76.8901C40.387 77.0292 40.5417 77.1392 40.7148 77.2123C40.8879 77.2854 41.0751 77.3198 41.2631 77.3131C41.4512 77.3064 41.6354 77.2587 41.8027 77.1734C42.4451 76.8606 42.544 76.3045 42.5428 75.6639C42.5353 70.7921 42.5353 65.9198 42.5428 61.0471C42.5428 60.0615 42.8571 59.5886 43.5007 59.5985C44.1444 59.6084 44.4174 60.0516 44.4174 61.0111C44.4174 66.5649 44.4174 72.1187 44.4174 77.6724C44.4075 77.9811 44.4344 78.2898 44.4975 78.5923C44.644 79.1869 45.1787 79.5456 45.8048 79.522C46.0882 79.5183 46.3618 79.4188 46.5803 79.24C46.7989 79.0613 46.9494 78.8139 47.007 78.5389C47.0568 78.2545 47.0777 77.9659 47.0696 77.6774C47.0621 72.1451 47.0521 66.6125 47.0395 61.0794C47.0395 60.0863 47.3351 59.632 47.9887 59.6171C48.6424 59.6022 48.9467 60.0578 48.9467 61.0571V75.5559C48.9397 75.7629 48.9435 75.97 48.958 76.1766C48.9852 76.4775 49.1222 76.7582 49.3432 76.9662C49.5643 77.1741 49.8543 77.295 50.1588 77.3062C50.8138 77.341 51.3622 76.9661 51.5025 76.3454C51.5564 76.0619 51.5791 75.7735 51.5701 75.4852C51.5701 70.6953 51.5701 65.9053 51.5701 61.1154C51.563 60.8884 51.5709 60.6611 51.5939 60.4352C51.6628 59.9386 51.9696 59.6606 52.478 59.6481C52.9864 59.6357 53.3082 59.8964 53.4034 60.393C53.4376 60.6172 53.4506 60.8441 53.4422 61.0707C53.4422 64.1675 53.4422 67.2642 53.4422 70.3609C53.4353 70.6095 53.4449 70.8583 53.471 71.1057C53.5052 71.428 53.6643 71.7246 53.9147 71.933C54.165 72.1413 54.4872 72.2453 54.8134 72.2229C55.6323 72.1944 56.0906 71.6023 56.0906 70.5682C56.0906 64.1894 56.0906 57.8101 56.0906 51.4305C56.0906 50.4374 55.8164 49.5685 55.1627 48.8075C54.4334 47.9761 53.9807 46.9417 53.8667 45.8457C53.8191 45.3988 53.8204 44.9469 53.7953 44.4157H53.0953C51.0542 44.4157 49.013 44.4157 46.9719 44.4157C46.7439 44.424 46.5157 44.4027 46.2932 44.3523C46.0864 44.3055 45.9049 44.1832 45.785 44.0098C45.665 43.8364 45.6153 43.6245 45.6458 43.4164C45.6452 43.2063 45.7239 43.0036 45.8664 42.8481C46.0089 42.6926 46.2049 42.5955 46.4159 42.576C46.6437 42.5501 46.873 42.5409 47.1022 42.5487H55.8289V36.1992H38.1926V42.5487C39.4573 42.5487 40.6807 42.5487 41.9042 42.5487C42.6755 42.5487 43.1251 42.9211 43.1063 43.4946C43.0888 44.0519 42.6505 44.3921 41.9154 44.4032C41.3845 44.4119 40.8523 44.4032 40.2637 44.4032C40.409 46.6823 39.2983 48.2663 37.7593 49.6442C37.3836 49.9756 37.0455 50.3381 36.7024 50.6981C36.154 51.2703 35.7808 51.9469 35.7708 52.7388C35.7432 54.9484 35.7307 57.158 35.7708 59.3651C35.7908 60.5792 36.7538 61.6951 38.026 62.0203ZM25.2734 77.5954L34.9042 87.1029C36.0487 85.6828 37.6704 85.0795 39.5262 84.8908C40.0431 84.8135 40.5237 84.5813 40.9036 84.2255C42.0081 83.1976 43.0399 82.0928 43.9929 81.1221C43.7424 80.8043 43.4432 80.4816 43.2077 80.1216C42.9723 79.7616 42.7745 79.3333 42.5591 78.9324C42.267 79.0168 41.9701 79.0839 41.67 79.1335C39.6276 79.3681 38.0385 77.9405 38.031 75.8439C38.0185 72.2937 38.031 68.7435 38.031 65.1932V64.3851C37.0781 65.3434 36.2779 66.1528 35.4702 66.9584C34.8441 67.5791 34.2931 67.6846 33.8561 67.2663C33.399 66.8281 33.4804 66.303 34.1228 65.6711C34.8141 64.9896 35.5103 64.3057 36.2153 63.6229C35.0482 62.8669 33.528 63.0606 32.4586 64.0996C31.1325 65.3831 29.8615 66.7225 28.5179 67.9862C27.5599 68.8874 27.0903 69.9364 27.1592 71.2385C27.1805 71.6494 27.1392 72.0653 27.1667 72.4799C27.2869 74.476 26.7948 76.2461 25.2734 77.5954ZM65.5825 94.2294L77.9633 82.0221L73.6005 77.7196C69.5032 81.7577 65.3458 85.8566 61.2185 89.9232L65.5825 94.2294Z" fill="#8174AE"/>
<path d="M30.6065 89.197C30.8687 89.1987 31.1202 89.3 31.3092 89.4802C31.4982 89.6604 31.6102 89.9056 31.622 90.1653C31.625 90.2942 31.6022 90.4224 31.555 90.5426C31.5078 90.6627 31.437 90.7724 31.3468 90.8653C31.2565 90.9582 31.1487 91.0325 31.0293 91.0838C30.91 91.1352 30.7816 91.1626 30.6516 91.1646C30.5215 91.1684 30.392 91.1466 30.2704 91.1007C30.1488 91.0547 30.0376 90.9854 29.9431 90.8967C29.8486 90.808 29.7727 90.7017 29.7198 90.5838C29.6669 90.466 29.638 90.3389 29.6348 90.21C29.6351 89.9499 29.736 89.6998 29.9168 89.5114C30.0976 89.3229 30.3445 89.2104 30.6065 89.197Z" fill="#8174AE"/>
<path d="M67.3174 53.7208C67.0651 53.7156 66.8249 53.6121 66.649 53.4328C66.473 53.2534 66.3753 53.0126 66.377 52.7625C66.3809 52.523 66.4798 52.2947 66.6523 52.1269C66.8248 51.9592 67.057 51.8655 67.2986 51.8662C67.4235 51.8659 67.5473 51.8901 67.6627 51.9376C67.7781 51.985 67.8829 52.0547 67.971 52.1425C68.059 52.2304 68.1286 52.3347 68.1757 52.4495C68.2228 52.5642 68.2464 52.687 68.2453 52.8109C68.2341 53.0503 68.1325 53.2769 67.9606 53.4454C67.7886 53.614 67.5591 53.7123 67.3174 53.7208Z" fill="#8174AE"/>
<path d="M45.8313 90.1914C45.9562 90.1925 46.0796 90.2183 46.1943 90.2673C46.309 90.3164 46.4127 90.3876 46.4992 90.4768C46.5858 90.5661 46.6535 90.6716 46.6983 90.7872C46.7432 90.9027 46.7643 91.026 46.7605 91.1497C46.7584 91.2682 46.7327 91.3851 46.685 91.4937C46.6372 91.6023 46.5684 91.7005 46.4823 91.7827C46.3962 91.8649 46.2946 91.9295 46.1834 91.9728C46.0721 92.016 45.9533 92.0371 45.8338 92.0348C45.7092 92.0348 45.5859 92.0103 45.4709 91.9625C45.356 91.9148 45.2518 91.8449 45.1644 91.7569C45.0769 91.6688 45.0081 91.5644 44.9618 91.4498C44.9155 91.3351 44.8927 91.2124 44.8947 91.0889C44.909 90.8502 45.0132 90.6255 45.1867 90.4593C45.3601 90.2931 45.5902 90.1975 45.8313 90.1914Z" fill="#8174AE"/>
<path d="M25.7775 55.4226C25.7836 55.5466 25.7638 55.6704 25.7194 55.7864C25.6751 55.9024 25.607 56.008 25.5196 56.0968C25.4322 56.1856 25.3272 56.2555 25.2113 56.3023C25.0954 56.349 24.971 56.3716 24.8459 56.3685C24.604 56.368 24.3719 56.2741 24.1987 56.1068C24.0255 55.9395 23.9248 55.7119 23.918 55.4723C23.9224 55.2226 24.0235 54.9842 24.2005 54.8064C24.3774 54.6287 24.6166 54.5253 24.8684 54.5177C25.1082 54.524 25.3363 54.6215 25.5055 54.79C25.6747 54.9584 25.7721 55.1849 25.7775 55.4226Z" fill="#8174AE"/>
<path d="M33.0124 46.9803C33.0062 47.2277 32.9024 47.4629 32.7233 47.6353C32.5443 47.8077 32.3041 47.9037 32.0545 47.9026C31.8046 47.8907 31.5693 47.7824 31.399 47.6007C31.2286 47.4191 31.1367 47.1786 31.1429 46.9307C31.1574 46.6939 31.2618 46.4714 31.4351 46.3079C31.6084 46.1444 31.8378 46.052 32.077 46.0493C32.2007 46.0473 32.3236 46.07 32.4383 46.1161C32.5529 46.1622 32.657 46.2308 32.7444 46.3177C32.8317 46.4046 32.9004 46.5081 32.9465 46.622C32.9925 46.7358 33.015 46.8577 33.0124 46.9803Z" fill="#8174AE"/>
<path d="M70.1919 56.2246C70.1764 56.4642 70.0667 56.6883 69.8864 56.8487C69.7062 57.009 69.4696 57.0929 69.2276 57.0824C69.1028 57.0769 68.9804 57.0466 68.8676 56.9934C68.7549 56.9401 68.654 56.865 68.5711 56.7723C68.4882 56.6797 68.4249 56.5715 68.3849 56.4542C68.345 56.3369 68.3292 56.2128 68.3386 56.0893C68.3522 55.8498 68.4602 55.6252 68.6395 55.464C68.8187 55.3028 69.0547 55.218 69.2965 55.2278C69.5484 55.2429 69.784 55.3562 69.9518 55.543C70.1196 55.7298 70.2059 55.9749 70.1919 56.2246Z" fill="#8174AE"/>
<path d="M23.4223 57.9537C23.6642 57.9632 23.8934 58.0639 24.0629 58.2354C24.2323 58.4068 24.3293 58.636 24.3339 58.876C24.3336 58.9998 24.3085 59.1223 24.2602 59.2365C24.2118 59.3507 24.1411 59.4542 24.0521 59.5411C23.9632 59.628 23.8577 59.6966 23.7419 59.7429C23.626 59.7891 23.5021 59.8122 23.3772 59.8107C23.2522 59.8087 23.129 59.7814 23.0151 59.7304C22.9012 59.6794 22.799 59.6058 22.7149 59.5141C22.6308 59.4225 22.5665 59.3147 22.526 59.1975C22.4855 59.0803 22.4696 58.9561 22.4794 58.8326C22.491 58.5935 22.5959 58.3683 22.7717 58.2043C22.9476 58.0404 23.1809 57.9505 23.4223 57.9537Z" fill="#8174AE"/>
<path d="M27.7563 52.2721C27.7491 52.522 27.6432 52.7592 27.4615 52.9326C27.2798 53.106 27.0368 53.2018 26.7846 53.1994C26.5431 53.187 26.3156 53.0836 26.1487 52.9102C25.9817 52.7369 25.888 52.5068 25.8867 52.2672C25.888 52.1435 25.9142 52.0214 25.964 51.908C26.0137 51.7946 26.0859 51.6923 26.1763 51.6071C26.2667 51.5219 26.3735 51.4555 26.4902 51.412C26.6069 51.3684 26.7313 51.3485 26.8559 51.3535C27.0975 51.3591 27.3273 51.4584 27.4957 51.6303C27.6641 51.8021 27.7577 52.0326 27.7563 52.2721Z" fill="#8174AE"/>
<path d="M49.5415 91.9143C49.3003 91.9104 49.0703 91.8125 48.9013 91.6417C48.7323 91.471 48.638 91.2411 48.6387 91.002C48.639 90.878 48.6641 90.7553 48.7125 90.641C48.7609 90.5267 48.8317 90.423 48.9208 90.336C49.0099 90.249 49.1155 90.1803 49.2315 90.134C49.3475 90.0876 49.4716 90.0645 49.5966 90.066C49.8377 90.078 50.0653 90.1796 50.2343 90.3505C50.4032 90.5214 50.501 90.7491 50.5083 90.9883C50.5096 91.113 50.4852 91.2367 50.4367 91.3518C50.3881 91.4669 50.3164 91.5709 50.226 91.6576C50.1355 91.7443 50.0281 91.8117 49.9104 91.8559C49.7928 91.9 49.6672 91.9199 49.5415 91.9143Z" fill="#8174AE"/>
<path d="M70.6773 58.8512C70.9299 58.8663 71.1665 58.9785 71.3368 59.164C71.5071 59.3495 71.5976 59.5936 71.5889 59.8443C71.5728 60.0833 71.4636 60.3068 71.2844 60.4675C71.1052 60.6283 70.87 60.7137 70.6285 60.7058C70.5034 60.7056 70.3798 60.6796 70.2654 60.6294C70.1511 60.5792 70.0486 60.5059 69.9644 60.4142C69.8803 60.3225 69.8164 60.2144 69.7768 60.0968C69.7372 59.9792 69.7227 59.8547 69.7344 59.7313C69.7448 59.4917 69.8492 59.2656 70.0253 59.1012C70.2015 58.9368 70.4354 58.8471 70.6773 58.8512Z" fill="#8174AE"/>
<path d="M65.768 49.7373C65.7751 49.8558 65.7581 49.9745 65.718 50.0863C65.6778 50.1981 65.6155 50.3008 65.5345 50.3882C65.4535 50.4757 65.3557 50.5461 65.2467 50.5953C65.1377 50.6444 65.0199 50.6714 64.9002 50.6745C64.7753 50.6814 64.6502 50.6637 64.5321 50.6225C64.4141 50.5813 64.3054 50.5174 64.2123 50.4345C64.1192 50.3516 64.0436 50.2513 63.9897 50.1393C63.9359 50.0273 63.9048 49.9059 63.8984 49.782C63.8992 49.5424 63.9905 49.3118 64.1544 49.1358C64.3183 48.9597 64.5429 48.851 64.7838 48.8311C64.9089 48.8246 65.034 48.8431 65.1518 48.8854C65.2696 48.9278 65.3776 48.9932 65.4694 49.0777C65.5612 49.1622 65.6349 49.2641 65.6862 49.3774C65.7375 49.4907 65.7653 49.6131 65.768 49.7373Z" fill="#8174AE"/>
<path d="M72.3676 63.5832C72.3687 63.706 72.3454 63.8278 72.2989 63.9416C72.2523 64.0554 72.1836 64.1589 72.0965 64.2463C72.0095 64.3336 71.9058 64.403 71.7916 64.4505C71.6774 64.498 71.5548 64.5226 71.4309 64.5229C71.1917 64.5222 70.9619 64.4303 70.7891 64.2662C70.6164 64.1021 70.5139 63.8785 70.503 63.6416C70.4971 63.519 70.5158 63.3964 70.5578 63.281C70.5999 63.1656 70.6646 63.0595 70.7481 62.969C70.8317 62.8784 70.9325 62.8051 71.0447 62.7533C71.157 62.7015 71.2784 62.6722 71.4021 62.6671C71.6523 62.6631 71.894 62.757 72.0747 62.9285C72.2555 63.1 72.3607 63.3353 72.3676 63.5832Z" fill="#8174AE"/>
<path d="M22.3695 69.0017C22.4942 69.0046 22.617 69.0321 22.7308 69.0826C22.8446 69.1331 22.9471 69.2056 23.0322 69.2959C23.1173 69.3862 23.1834 69.4925 23.2266 69.6084C23.2698 69.7244 23.2892 69.8477 23.2837 69.9712C23.283 70.0897 23.2585 70.2068 23.2115 70.3157C23.1645 70.4247 23.096 70.5232 23.01 70.6054C22.9239 70.6877 22.8222 70.752 22.7107 70.7947C22.5992 70.8373 22.4802 70.8574 22.3608 70.8538C22.2357 70.8544 22.1119 70.8299 21.9967 70.7818C21.8815 70.7337 21.7773 70.663 21.6904 70.5739C21.6034 70.4849 21.5356 70.3793 21.4909 70.2635C21.4462 70.1478 21.4256 70.0243 21.4304 69.9004C21.4456 69.6615 21.5503 69.4368 21.7241 69.2705C21.8979 69.1042 22.1281 69.0084 22.3695 69.0017Z" fill="#8174AE"/>
<path d="M23.138 72.6686C23.2628 72.6656 23.387 72.6876 23.503 72.7332C23.619 72.7789 23.7246 72.8473 23.8133 72.9343C23.9021 73.0214 23.9722 73.1252 24.0195 73.2398C24.0667 73.3543 24.0902 73.4771 24.0885 73.6009C24.0776 73.84 23.9773 74.0665 23.8072 74.2363C23.637 74.4061 23.4092 74.507 23.1681 74.5195C23.0432 74.5192 22.9197 74.4941 22.8047 74.4459C22.6897 74.3976 22.5856 74.3271 22.4984 74.2384C22.4113 74.1497 22.3429 74.0447 22.2973 73.9294C22.2516 73.8142 22.2297 73.6911 22.2327 73.5673C22.23 73.4487 22.2515 73.3307 22.296 73.2205C22.3405 73.1103 22.4071 73.0102 22.4917 72.9263C22.5763 72.8423 22.6772 72.7761 22.7883 72.7319C22.8994 72.6876 23.0183 72.6661 23.138 72.6686Z" fill="#8174AE"/>
<path d="M61.9543 48.0727C61.8294 48.0767 61.7051 48.0556 61.5887 48.0107C61.4724 47.9658 61.3664 47.8979 61.2772 47.8113C61.188 47.7246 61.1175 47.6209 61.0699 47.5065C61.0222 47.392 60.9985 47.2692 61.0001 47.1454C61.0019 46.9055 61.0976 46.6757 61.2669 46.5044C61.4363 46.3331 61.6661 46.2336 61.9079 46.2268C62.1602 46.2287 62.4017 46.3278 62.5815 46.5032C62.7612 46.6786 62.8651 46.9165 62.8709 47.1665C62.867 47.4061 62.7691 47.6347 62.598 47.8039C62.4268 47.9731 62.1959 48.0695 61.9543 48.0727Z" fill="#8174AE"/>
<path d="M56.7361 90.0337C56.4951 90.0231 56.2677 89.9203 56.1016 89.7469C55.9356 89.5735 55.8439 89.343 55.8457 89.1039C55.8453 88.9802 55.8701 88.8577 55.9186 88.7437C55.9671 88.6297 56.0384 88.5266 56.1281 88.4406C56.2178 88.3546 56.3241 88.2874 56.4406 88.2431C56.5571 88.1989 56.6815 88.1783 56.8062 88.1829C57.0475 88.1945 57.2753 88.2966 57.4434 88.4686C57.6115 88.6406 57.7074 88.8695 57.7115 89.1089C57.703 89.3588 57.5962 89.5955 57.4139 89.7684C57.2316 89.9412 56.9883 90.0364 56.7361 90.0337Z" fill="#8174AE"/>
<path d="M54.163 90.3068C54.1661 90.4305 54.1443 90.5536 54.0987 90.6688C54.0531 90.7839 53.9847 90.8889 53.8975 90.9774C53.8103 91.0659 53.7061 91.1362 53.591 91.1842C53.4759 91.2321 53.3524 91.2567 53.2276 91.2565C52.9864 91.2474 52.7575 91.1491 52.5859 90.9809C52.4143 90.8126 52.3126 90.5867 52.3009 90.3478C52.2989 90.2239 52.322 90.1009 52.3691 89.9861C52.4161 89.8713 52.486 89.7671 52.5747 89.6797C52.6633 89.5923 52.7688 89.5235 52.8848 89.4775C53.0009 89.4315 53.1251 89.4091 53.2501 89.4118C53.3697 89.4097 53.4886 89.4313 53.5997 89.4754C53.7107 89.5195 53.8118 89.5851 53.8969 89.6686C53.982 89.752 54.0493 89.8514 54.095 89.961C54.1407 90.0707 54.1638 90.1882 54.163 90.3068Z" fill="#8174AE"/>
<path d="M22.4939 61.566C22.6187 61.5687 22.7417 61.5961 22.8557 61.6467C22.9696 61.6972 23.0722 61.7699 23.1574 61.8603C23.2426 61.9508 23.3087 62.0573 23.3517 62.1734C23.3947 62.2896 23.4139 62.4131 23.408 62.5368C23.4072 62.6554 23.3825 62.7726 23.3354 62.8816C23.2883 62.9906 23.2196 63.0891 23.1336 63.1715C23.0475 63.2538 22.9456 63.3183 22.8341 63.3611C22.7225 63.4038 22.6034 63.4241 22.4839 63.4206C22.2419 63.4223 22.0089 63.3297 21.8351 63.1628C21.6613 62.9958 21.5606 62.7679 21.5547 62.5281C21.5536 62.2779 21.6512 62.0373 21.8267 61.8575C22.0022 61.6778 22.2416 61.5732 22.4939 61.566Z" fill="#8174AE"/>
<path d="M23.0809 66.2025C23.0831 66.3264 23.06 66.4495 23.0128 66.5643C22.9656 66.6791 22.8954 66.7832 22.8064 66.8703C22.7174 66.9573 22.6114 67.0256 22.495 67.0708C22.3786 67.1161 22.2542 67.1374 22.1292 67.1335C22.0095 67.134 21.891 67.1108 21.7805 67.0652C21.67 67.0196 21.5699 66.9525 21.486 66.868C21.4021 66.7834 21.3361 66.683 21.292 66.5728C21.2478 66.4626 21.2263 66.3447 21.2288 66.2261C21.2256 66.1024 21.2476 65.9793 21.2934 65.8641C21.3392 65.749 21.4079 65.6442 21.4954 65.5559C21.5829 65.4677 21.6874 65.3978 21.8028 65.3504C21.9181 65.303 22.0419 65.2791 22.1667 65.2802C22.4082 65.2916 22.6365 65.393 22.8059 65.5639C22.9754 65.7349 23.0736 65.9629 23.0809 66.2025Z" fill="#8174AE"/>
<path d="M39.4534 89.6986C39.4502 89.9376 39.3568 90.1668 39.1915 90.3408C39.0261 90.5147 38.801 90.6209 38.5605 90.6383C38.436 90.6406 38.3122 90.6185 38.1963 90.5733C38.0804 90.5281 37.9746 90.4607 37.885 90.3749C37.7955 90.2891 37.7239 90.1866 37.6743 90.0734C37.6248 89.9601 37.5983 89.8382 37.5963 89.7148C37.592 89.5964 37.6115 89.4783 37.6537 89.3675C37.6959 89.2567 37.76 89.1553 37.8422 89.0693C37.9244 88.9833 38.023 88.9144 38.1324 88.8667C38.2418 88.8189 38.3596 88.7933 38.4791 88.7912C38.6038 88.785 38.7284 88.8038 38.8455 88.8465C38.9627 88.8891 39.07 88.9548 39.1609 89.0395C39.2519 89.1242 39.3246 89.2263 39.3749 89.3395C39.4251 89.4528 39.4518 89.5749 39.4534 89.6986Z" fill="#8174AE"/>
<path d="M42.0951 89.7768C42.2199 89.7702 42.3447 89.7894 42.4616 89.8331C42.5786 89.8769 42.685 89.9443 42.7743 90.031C42.8635 90.1177 42.9336 90.2219 42.9801 90.3369C43.0266 90.4519 43.0484 90.5753 43.0443 90.6991C43.0431 90.9386 42.9484 91.1683 42.7801 91.34C42.6117 91.5117 42.3828 91.6121 42.1414 91.6202C41.8891 91.6196 41.6471 91.521 41.4673 91.3455C41.2875 91.1701 41.1843 90.9318 41.1797 90.6817C41.182 90.442 41.2793 90.2128 41.4505 90.0435C41.6217 89.8742 41.8532 89.7784 42.0951 89.7768Z" fill="#8174AE"/>
<path d="M72.5238 67.491C72.5267 67.6149 72.5035 67.738 72.4557 67.8526C72.4079 67.9671 72.3365 68.0704 72.2461 68.1561C72.1557 68.2417 72.0483 68.3077 71.9307 68.3498C71.8132 68.392 71.688 68.4094 71.5633 68.4009C71.3222 68.39 71.0946 68.2875 70.9279 68.1145C70.7611 67.9416 70.668 67.7116 70.668 67.4724C70.6749 67.2224 70.7816 66.9853 70.9648 66.8133C71.1479 66.6412 71.3925 66.5483 71.6447 66.555C71.8861 66.5647 72.1138 66.6685 72.2784 66.8438C72.4431 67.019 72.5312 67.2516 72.5238 67.491Z" fill="#8174AE"/>
<path d="M28.3139 49.3587C28.3229 49.2352 28.357 49.1147 28.4141 49.0045C28.4713 48.8943 28.5503 48.7967 28.6464 48.7175C28.7425 48.6383 28.8538 48.5792 28.9735 48.5437C29.0933 48.5082 29.219 48.497 29.3432 48.5109C29.4626 48.5189 29.579 48.5507 29.6857 48.6044C29.7924 48.658 29.8871 48.7324 29.9641 48.8231C30.0411 48.9139 30.0989 49.019 30.134 49.1324C30.1691 49.2457 30.1808 49.3649 30.1684 49.4829C30.1604 49.6062 30.1276 49.7267 30.0717 49.8371C30.0159 49.9476 29.9383 50.0459 29.8435 50.1261C29.7487 50.2063 29.6386 50.2669 29.5198 50.3041C29.4009 50.3414 29.2757 50.3547 29.1516 50.3431C28.9118 50.3156 28.6916 50.1985 28.5359 50.0156C28.3802 49.8326 28.3008 49.5977 28.3139 49.3587Z" fill="#8174AE"/>
<path d="M59.5748 45.0538C59.5721 45.2936 59.4741 45.5227 59.302 45.6912C59.1299 45.8598 58.8976 45.9541 58.6556 45.9538C58.531 45.9591 58.4065 45.9389 58.2901 45.8943C58.1736 45.8497 58.0678 45.7818 57.9791 45.6947C57.8904 45.6076 57.8209 45.5033 57.7748 45.3883C57.7288 45.2733 57.7072 45.1501 57.7115 45.0265C57.7145 44.7877 57.8101 44.5593 57.9784 44.3885C58.1467 44.2178 58.3749 44.1177 58.6156 44.1091C58.8681 44.1117 59.1096 44.2118 59.2888 44.3883C59.4679 44.5647 59.5706 44.8035 59.5748 45.0538Z" fill="#8174AE"/>
<path d="M35.2889 44.057C35.4082 44.057 35.5263 44.0806 35.6362 44.1264C35.7462 44.1722 35.8458 44.2394 35.9292 44.3239C36.0126 44.4085 36.0781 44.5087 36.1219 44.6187C36.1657 44.7286 36.1869 44.8462 36.1842 44.9644C36.1842 45.0877 36.1595 45.2098 36.1114 45.3235C36.0633 45.4372 35.9929 45.5403 35.9041 45.6268C35.8154 45.7132 35.7103 45.7812 35.5947 45.8269C35.4792 45.8726 35.3557 45.8951 35.2313 45.8929C34.9909 45.8816 34.764 45.7796 34.5969 45.608C34.4298 45.4363 34.3351 45.2079 34.3322 44.9694C34.3299 44.8459 34.3534 44.7232 34.4011 44.6091C34.4489 44.495 34.5199 44.3919 34.6097 44.3063C34.6995 44.2206 34.8062 44.1543 34.9231 44.1114C35.0399 44.0685 35.1645 44.05 35.2889 44.057Z" fill="#8174AE"/>
<path d="M42.2309 39.325C42.2269 39.5852 42.1234 39.8341 41.9414 40.0217C41.7595 40.2092 41.5125 40.3213 41.2504 40.3354C40.9884 40.3355 40.7367 40.2338 40.5495 40.0521C40.3622 39.8704 40.2542 39.6232 40.2486 39.3635C40.2441 39.235 40.2657 39.1069 40.312 38.9868C40.3584 38.8667 40.4287 38.7571 40.5186 38.6645C40.6085 38.5719 40.7163 38.4981 40.8356 38.4476C40.9549 38.3971 41.0832 38.3708 41.2128 38.3704C41.4747 38.366 41.728 38.4634 41.9183 38.6419C42.1086 38.8203 42.2208 39.0655 42.2309 39.325Z" fill="#8174AE"/>
<path d="M74.9066 81.6746C74.9157 81.9345 74.8206 82.1875 74.642 82.378C74.4634 82.5686 74.2158 82.6812 73.9536 82.6912C73.6913 82.693 73.4385 82.5934 73.2489 82.4136C73.0593 82.2338 72.9478 81.9879 72.9381 81.7279C72.9336 81.5995 72.955 81.4714 73.0011 81.3512C73.0471 81.231 73.1169 81.1212 73.2064 81.0281C73.2959 80.9351 73.4032 80.8606 73.522 80.8092C73.6409 80.7578 73.7689 80.7304 73.8985 80.7287C74.0281 80.7221 74.1577 80.7417 74.2795 80.7862C74.4012 80.8307 74.5126 80.8993 74.6068 80.9877C74.701 81.0762 74.7762 81.1826 74.8277 81.3007C74.8792 81.4187 74.9061 81.5459 74.9066 81.6746Z" fill="#8174AE"/>
</g>
<defs>
<clipPath id="clip0_152_114">
<rect width="64" height="62" fill="white" transform="translate(16 34.2876)"/>
</clipPath>
</defs>
</svg>
