<svg width="113" height="110" viewBox="0 0 113 110" fill="none" xmlns="http://www.w3.org/2000/svg">
<path d="M0 0V109.383H113C113 48.9716 62.4073 0 0 0Z" fill="#E6E1F8"/>
<g clip-path="url(#clip0_152_156)">
<path d="M17.9993 59.7911C18.2585 59.1611 18.7654 58.9679 19.4096 58.9809C20.2198 58.999 21.0313 58.9809 21.8415 58.99C22.1007 58.99 22.2563 58.942 22.3289 58.6672C22.8638 56.6508 23.677 54.7188 24.7452 52.9269C24.0728 52.2554 23.4035 51.5869 22.7372 50.9215C22.0035 50.1851 22.0061 49.6899 22.7489 48.9458C24.7478 46.9434 26.7475 44.9418 28.7481 42.9411C29.5259 42.1633 29.9964 42.1633 30.7625 42.9269C31.421 43.5828 32.0757 44.2427 32.6629 44.8325C34.1329 44.1934 35.5303 43.5725 36.9406 42.9826C37.4214 42.7923 37.9158 42.6384 38.4197 42.5224C38.7243 42.4459 38.8345 42.3137 38.8254 41.9935C38.8021 41.1483 38.8125 40.3082 38.8254 39.4578C38.8332 38.5504 39.2143 38.1615 40.1217 38.1615C41.5044 38.1563 42.8845 38.1563 44.2621 38.1615C45.1695 38.1615 45.5415 38.5504 45.5428 39.4708C45.5428 42.455 45.5428 45.4392 45.5428 48.4234V49.0431C45.7528 49.0547 45.9317 49.0716 46.1145 49.0716C49.1854 49.0716 52.2576 49.0716 55.3285 49.0806C55.6992 49.0806 55.917 48.9847 56.0985 48.6451C56.954 47.0506 57.8316 45.469 58.7144 43.8888C58.7837 43.7851 58.8227 43.6641 58.8268 43.5395C58.8309 43.4148 58.8001 43.2915 58.7377 43.1835C58.0014 41.6396 58.4577 39.8843 59.8331 38.8434C61.1099 37.8789 62.9273 37.9541 64.186 39.0249C64.7955 39.5435 65.2077 40.2563 65.3532 41.0433C65.4986 41.8303 65.3684 42.6434 64.9845 43.3456C64.6085 44.0524 63.9988 44.6068 63.2596 44.9142C62.5203 45.2215 61.6973 45.2627 60.931 45.0308C60.5992 44.9323 60.4488 44.9971 60.2829 45.2966C59.3884 46.9481 58.4486 48.5751 57.5762 50.2383C57.2236 50.9124 56.7505 51.1561 56.0077 51.1457C52.7463 51.1198 49.4861 51.1341 46.2246 51.1354H45.5765V52.9878C46.2091 53.1175 46.8585 53.2082 47.4781 53.3923C48.1878 53.5997 48.8811 53.8597 49.5522 54.1701C50.0284 54.4042 50.5525 54.5245 51.0831 54.5214C54.4535 54.5033 57.8121 54.5214 61.176 54.4994C61.4551 54.485 61.7207 54.3746 61.9279 54.187C62.6719 53.4934 63.368 52.748 64.1017 52.0441C64.3247 51.8302 64.3493 51.6552 64.243 51.3739C63.6454 49.7988 64.1549 48.1473 65.5043 47.2139C66.1585 46.7694 66.943 46.5577 67.732 46.6127C68.5209 46.6677 69.2685 46.9863 69.8547 47.5172C71.0926 48.6088 71.3558 50.4924 70.4743 51.9547C69.6369 53.3443 67.8376 53.9821 66.3262 53.3936C65.9749 53.2562 65.748 53.2769 65.4758 53.566C64.7304 54.3555 63.9203 55.0892 63.1853 55.8852C62.9765 56.1235 62.7163 56.3112 62.4244 56.4343C62.1325 56.5573 61.8164 56.6125 61.5001 56.5956C58.8608 56.5645 56.2203 56.5826 53.5811 56.5826H52.9913C53.1209 56.7615 53.2025 56.8834 53.2985 56.9923C54.1332 57.9369 54.8052 59.0138 55.287 60.1787C55.65 61.0524 55.5229 61.619 54.8774 61.8938C54.2668 62.153 53.7535 61.8432 53.3996 61.0097C52.3807 58.6157 50.6813 56.892 48.3013 55.8385C42.5069 53.2912 35.8375 57.026 34.969 63.3003C34.7765 64.6397 34.8687 66.0047 35.2396 67.306C35.6105 68.6073 36.2517 69.8158 37.1214 70.8524C37.9911 71.889 39.0697 72.7305 40.2868 73.3218C41.5038 73.9132 42.8319 74.2412 44.1843 74.2843C45.1915 74.3206 45.535 74.6732 45.5376 75.6921C45.5376 76.4816 45.5376 77.2711 45.5376 78.1202H46.1326C49.4459 78.1202 52.7592 78.1332 56.0712 78.1085C56.7829 78.1085 57.2223 78.3678 57.5529 78.9914C58.4473 80.6766 59.391 82.3463 60.2984 84.029C60.4488 84.309 60.594 84.3738 60.9038 84.2882C62.8482 83.7425 64.7304 84.7938 65.2814 86.7111C65.7999 88.5338 64.7266 90.442 62.8495 91.0124C62.703 91.0565 62.5592 91.1083 62.414 91.1563H61.3769C61.3001 91.1213 61.2213 91.0905 61.141 91.0643C58.822 90.4304 57.7888 88.2356 58.7558 86.0383C58.7866 85.94 58.7975 85.8365 58.7879 85.7339C58.7784 85.6313 58.7485 85.5317 58.7001 85.4407C57.8303 83.8164 56.9307 82.2076 56.0609 80.5833C56.006 80.4521 55.9103 80.3423 55.7878 80.2701C55.6654 80.1979 55.5229 80.1672 55.3816 80.1827C52.2602 80.197 49.1387 80.1905 46.0172 80.1931C45.8682 80.1931 45.7191 80.2112 45.5363 80.2242V80.8205C45.5363 83.8021 45.5272 86.7837 45.5363 89.7653C45.5363 90.4226 45.3445 90.9087 44.7028 91.1524H39.6304C38.9978 90.8931 38.7891 90.407 38.806 89.7562C38.8267 88.9473 38.7969 88.1358 38.819 87.3269C38.8267 87.0119 38.7256 86.8771 38.4197 86.7967C36.5388 86.2929 34.7326 85.5432 33.0479 84.567C32.9481 84.5099 32.8392 84.471 32.7044 84.4101C32.0368 85.0881 31.3886 85.7557 30.7314 86.413C30.0133 87.1324 29.5025 87.135 28.787 86.4259C26.751 84.3907 24.7167 82.3541 22.6841 80.3162C22.0035 79.633 22.0126 79.1119 22.7061 78.4171C23.3737 77.7456 24.0478 77.0805 24.74 76.3935C23.6641 74.5782 22.8358 72.6271 22.277 70.5923C22.2446 70.4756 22.0178 70.3447 21.87 70.3408C21.0438 70.3175 20.2168 70.3153 19.3889 70.3343C18.7408 70.3499 18.2469 70.1463 17.9863 69.5176L17.9993 59.7911ZM43.448 76.3312C40.5041 76.0123 37.9815 74.8158 35.9606 72.6509C33.9397 70.486 32.7394 67.8687 32.8262 64.8858C33.0258 57.9969 36.8667 54.2233 43.435 52.888V40.2719H40.8878C40.8878 41.1612 40.8878 42.0052 40.8878 42.8491C40.8878 43.8032 40.6986 44.0806 39.7756 44.3036C37.5271 44.8416 35.3783 45.7334 33.4096 46.9456C32.624 47.4291 32.2805 47.3708 31.6323 46.7252C31.0127 46.1081 30.397 45.4872 29.8746 44.9634L24.7905 50.0361C24.7698 50.0049 24.7905 50.0361 24.8087 50.0607C25.3574 50.6121 25.9058 51.1617 26.4537 51.7096C27.2314 52.4875 27.2768 52.7467 26.7129 53.6892C25.6229 55.4686 24.8022 57.3994 24.2772 59.419C23.8598 61.0589 23.8442 61.0563 22.1409 61.0563H20.1019V68.2615C21.0093 68.2615 21.883 68.2615 22.758 68.2615C23.6329 68.2615 23.913 68.4754 24.11 69.2985C24.6537 71.5813 25.5577 73.7627 26.7881 75.7608C27.2561 76.5192 27.1925 76.8627 26.5639 77.4954C25.9352 78.128 25.3233 78.7334 24.7633 79.2908C26.4744 81.0098 28.1453 82.6898 29.8486 84.3997C30.4372 83.8021 31.0503 83.1721 31.6725 82.5524C32.2947 81.9328 32.6318 81.8926 33.3681 82.3476C35.3658 83.5791 37.5472 84.4841 39.83 85.0285C40.6843 85.2359 40.8878 85.5275 40.8891 86.4168C40.8904 87.3061 40.8891 88.1643 40.8891 89.0394H43.4493L43.448 76.3312ZM61.8773 43.1213C62.2592 43.1221 62.6263 42.9733 62.8998 42.7068C63.1734 42.4402 63.3317 42.0772 63.3408 41.6953C63.3413 41.3136 63.1923 40.9469 62.9258 40.6736C62.6593 40.4003 62.2965 40.2422 61.9149 40.2331C61.5328 40.2313 61.1653 40.3798 60.8918 40.6466C60.6182 40.9134 60.4605 41.277 60.4527 41.659C60.4512 42.0408 60.5997 42.4079 60.8661 42.6814C61.1325 42.9549 61.4956 43.1128 61.8773 43.1213ZM61.8903 86.19C61.5079 86.1941 61.1424 86.3483 60.8728 86.6195C60.6031 86.8906 60.4508 87.2569 60.4488 87.6393C60.4525 88.0218 60.6067 88.3875 60.8779 88.6572C61.1491 88.927 61.5156 89.0792 61.8981 89.0809C62.2803 89.0761 62.6456 88.9217 62.9153 88.6507C63.185 88.3798 63.3378 88.0139 63.3408 87.6315C63.3357 87.2492 63.181 86.8841 62.9098 86.6146C62.6386 86.3451 62.2726 86.1927 61.8903 86.19ZM67.4643 51.5437C67.8466 51.55 68.2159 51.4043 68.4909 51.1387C68.766 50.873 68.9245 50.5091 68.9317 50.1268C68.9345 49.745 68.7861 49.3776 68.5189 49.1049C68.2518 48.8321 67.8875 48.6761 67.5058 48.671C67.3164 48.6674 67.1282 48.7013 66.952 48.7707C66.7757 48.8402 66.615 48.9438 66.479 49.0756C66.3429 49.2074 66.2343 49.3648 66.1594 49.5388C66.0844 49.7127 66.0446 49.8998 66.0423 50.0892C66.0399 50.2782 66.0748 50.4657 66.145 50.6412C66.2152 50.8166 66.3194 50.9765 66.4515 51.1116C66.5836 51.2467 66.741 51.3544 66.9148 51.4286C67.0886 51.5027 67.2754 51.5419 67.4643 51.5437Z" fill="#8174AE"/>
<path d="M44.917 72.5265C40.2258 72.533 36.7128 69.1015 36.6324 64.8365C36.5909 62.7701 37.3633 60.7702 38.7829 59.2681C40.2024 57.766 42.1556 56.882 44.2209 56.8069C44.9689 56.781 45.4679 57.1544 45.5172 57.7753C45.5665 58.3963 45.0816 58.8266 44.2935 58.8733C40.9841 59.0678 38.6054 61.6618 38.7078 64.9662C38.7947 67.7805 41.1928 70.2592 44.0096 70.4458C47.0442 70.6468 49.7522 68.5558 50.1942 65.6649C50.2435 65.3408 50.2642 65.0167 50.2953 64.6887C50.3562 64.0574 50.7996 63.6167 51.3557 63.64C51.9403 63.6646 52.3733 64.1417 52.3551 64.8067C52.3033 66.6423 51.716 68.2913 50.5273 69.6978C48.9562 71.5516 46.9353 72.472 44.917 72.5265Z" fill="#8174AE"/>
<path d="M58.2876 72.73C59.4258 72.73 60.5639 72.7456 61.7008 72.73C61.9499 72.7187 62.1984 72.7629 62.4284 72.8593C62.6584 72.9557 62.8641 73.1019 63.0308 73.2875C63.8578 74.1417 64.7159 74.9727 65.5443 75.8192C65.7555 76.037 65.9331 76.0785 66.2183 75.9631C68.1213 75.2501 70.1863 76.2016 70.7942 78.0528C71.4424 80.0427 70.4053 82.0404 68.3766 82.5901C67.0557 82.9466 65.867 82.6095 64.9363 81.6074C64.0056 80.6053 63.7061 79.3894 64.1935 78.0671C64.3322 77.6924 64.3115 77.4643 64.0081 77.1817C63.2874 76.5141 62.6237 75.7868 61.9069 75.1153C61.712 74.9391 61.4627 74.8348 61.2004 74.8197C59.0278 74.7977 56.8552 74.8107 54.684 74.8042C53.9412 74.8042 53.4992 74.4218 53.481 73.806C53.4629 73.1902 53.9036 72.7482 54.6166 72.7404C55.8403 72.7209 57.0639 72.73 58.2876 72.73ZM67.4615 77.7715C67.2719 77.7729 67.0844 77.8118 66.9099 77.8859C66.7354 77.9601 66.5773 78.0681 66.4447 78.2037C66.3121 78.3392 66.2077 78.4997 66.1375 78.6759C66.0673 78.852 66.0326 79.0403 66.0355 79.2299C66.0427 79.6123 66.2012 79.9762 66.4763 80.2418C66.7514 80.5074 67.1206 80.6531 67.5029 80.6468C67.8857 80.6407 68.2505 80.4833 68.5177 80.2091C68.7849 79.9349 68.9327 79.5661 68.9289 79.1832C68.9203 78.8018 68.7612 78.4392 68.4863 78.1747C68.2114 77.9102 67.8429 77.7653 67.4615 77.7715Z" fill="#8174AE"/>
<path d="M62.4751 63.6309C62.5269 63.6276 62.5788 63.6276 62.6306 63.6309C63.5056 63.7151 64.1525 63.6309 64.6749 62.6534C65.4203 61.2482 67.2558 60.8243 68.7686 61.4076C70.1737 61.9495 71.1239 63.4546 70.9852 64.9208C70.8284 66.5788 69.6371 67.8829 68.0427 68.1409C67.2795 68.2663 66.4963 68.1338 65.8169 67.7643C65.1375 67.3947 64.6006 66.8093 64.2912 66.1004C64.1473 65.7621 63.9697 65.6856 63.6431 65.6934C62.8342 65.7141 62.0227 65.7076 61.2125 65.6934C60.5203 65.6843 60.0705 65.2941 60.0459 64.7069C60.0212 64.1196 60.4866 63.6594 61.1892 63.6296C61.6131 63.6179 62.0447 63.6309 62.4751 63.6309ZM67.4814 63.2212C67.0989 63.2273 66.7341 63.3827 66.4647 63.6543C66.1954 63.9258 66.0429 64.292 66.0399 64.6744C66.0419 65.0567 66.1956 65.4224 66.467 65.6915C66.7385 65.9605 67.1056 66.1109 67.4878 66.1095C67.8699 66.1085 68.2361 65.9563 68.5064 65.6862C68.7768 65.4162 68.9292 65.0501 68.9306 64.668C68.9249 64.2856 68.7703 63.9205 68.4997 63.6504C68.229 63.3802 67.8637 63.2263 67.4814 63.2212Z" fill="#8174AE"/>
<path d="M56.192 64.655C56.188 64.9239 56.0813 65.1811 55.8938 65.3739C55.7063 65.5667 55.4522 65.6806 55.1835 65.6921C55.046 65.6926 54.9097 65.666 54.7825 65.6137C54.6553 65.5614 54.5396 65.4845 54.4422 65.3875C54.3448 65.2904 54.2675 65.175 54.2147 65.048C54.162 64.921 54.1348 64.7848 54.1348 64.6472C54.1335 64.5092 54.1601 64.3722 54.2129 64.2446C54.2657 64.1171 54.3437 64.0014 54.4422 63.9046C54.5407 63.8078 54.6576 63.7319 54.7861 63.6813C54.9146 63.6307 55.052 63.6065 55.19 63.6102C55.4603 63.6193 55.7163 63.7336 55.9035 63.9288C56.0907 64.124 56.1942 64.3846 56.192 64.655Z" fill="#8174AE"/>
<path d="M50.2487 72.7365C50.5178 72.7452 50.773 72.8583 50.9603 73.0519C51.1475 73.2454 51.2522 73.5042 51.252 73.7735C51.25 74.0434 51.1418 74.3015 50.9509 74.4922C50.7599 74.6829 50.5017 74.7908 50.2318 74.7924C49.962 74.7847 49.7058 74.672 49.5177 74.4784C49.3297 74.2847 49.2245 74.0253 49.2246 73.7554C49.2293 73.4857 49.3389 73.2285 49.5301 73.0383C49.7212 72.848 49.979 72.7398 50.2487 72.7365Z" fill="#8174AE"/>
<path d="M28.2439 64.0755C28.3852 57.8297 32.4828 51.9547 38.342 49.6083C39.0147 49.3386 39.5851 49.5123 39.8379 50.0607C40.0972 50.6298 39.8496 51.2093 39.1509 51.5035C36.9848 52.411 35.1155 53.7307 33.6092 55.5404C31.5352 58.0358 30.4489 60.9163 30.3193 64.1572C30.3179 64.3809 30.2988 64.6041 30.2622 64.8248C30.1494 65.3706 29.7048 65.7193 29.2006 65.6817C28.6652 65.6428 28.275 65.2228 28.2452 64.6446C28.2348 64.4554 28.2439 64.2661 28.2439 64.0755Z" fill="#8174AE"/>
</g>
<defs>
<clipPath id="clip0_152_156">
<rect width="53" height="53" fill="white" transform="translate(18 38.155)"/>
</clipPath>
</defs>
</svg>
