<svg width="113" height="110" viewBox="0 0 113 110" fill="none" xmlns="http://www.w3.org/2000/svg">
<path d="M0 0V109.383H113C113 48.9717 62.4073 0 0 0Z" fill="#E6E1F8"/>
<g clip-path="url(#clip0_152_101)">
<path d="M32.3118 95.1642C31.6576 94.9131 30.9528 94.7482 30.3614 94.3956C28.9474 93.553 28.1737 92.2776 28.0404 90.6361C28.0143 90.3169 28.0097 89.9946 28.0097 89.6739C28.0097 76.7437 28.0097 63.8124 28.0097 50.8801C28.0013 50.6352 28.0105 50.39 28.0373 50.1464C28.0523 49.9445 28.1465 49.7564 28.2999 49.6221C28.4533 49.4879 28.6538 49.4181 28.8585 49.4278C29.0628 49.4126 29.265 49.4771 29.4217 49.6075C29.5784 49.7379 29.6771 49.9238 29.6965 50.1252C29.7285 50.3684 29.7398 50.6139 29.7302 50.859C29.7302 62.2239 29.7302 73.5882 29.7302 84.9521C29.7302 85.7086 29.7302 85.7086 30.4963 85.7086H60.4956C61.2616 85.7086 61.2616 85.7086 61.2616 84.9521C61.2616 70.7944 61.2616 56.6362 61.2616 42.4775C61.2616 40.5365 60.2934 39.2505 58.5836 38.9267C58.3192 38.8848 58.0515 38.8671 57.7839 38.8738C49.5822 38.8738 41.3801 38.8738 33.1774 38.8738C31.0861 38.8738 29.7394 40.1945 29.718 42.2672C29.7057 43.5501 29.718 44.8391 29.718 46.1175C29.718 46.5457 29.6061 46.9073 29.171 47.0873C29.0474 47.1417 28.912 47.165 28.777 47.1549C28.642 47.1448 28.5116 47.1018 28.3977 47.0296C28.2837 46.9574 28.1897 46.8584 28.1242 46.7414C28.0586 46.6245 28.0235 46.4933 28.022 46.3596C28.0067 44.644 27.9147 42.9132 28.1047 41.2157C28.3544 38.9615 30.484 37.2277 32.8097 37.1854C34.567 37.1521 36.3334 37.1748 38.0861 37.1748C44.6628 37.1748 51.2399 37.1748 57.8176 37.1748C60.3562 37.1748 62.3295 38.6877 62.8596 41.0372C62.9514 41.5 62.992 41.9713 62.9806 42.4427C62.9868 58.2636 62.9868 74.083 62.9806 89.9008C62.9806 92.68 61.5481 94.4547 58.8318 95.0901C58.7783 95.1101 58.7269 95.1354 58.6786 95.1657H56.5C56.12 94.8813 55.7906 94.5606 55.9898 94.0356C56.189 93.5106 56.6272 93.4455 57.1159 93.4637C57.4591 93.4758 57.8038 93.4743 58.147 93.4637C59.5794 93.4077 60.9353 92.4138 61.1329 91.0219C61.2984 89.866 61.1667 88.6678 61.1667 87.462H29.7134C29.7134 88.3153 29.7134 89.1262 29.7134 89.9311C29.7134 92.1777 31.034 93.4682 33.3122 93.4698C39.6948 93.4698 46.0784 93.4698 52.463 93.4698C52.9548 93.4698 53.3976 93.5303 53.586 94.0477C53.7744 94.5651 53.4589 94.8964 53.0636 95.1733L32.3118 95.1642Z" fill="#8174AE"/>
<path d="M45.4598 68.3329C44.6003 68.3329 43.7408 68.3435 42.8813 68.3329C41.962 68.3193 41.3845 67.7565 41.3783 66.8397C41.3661 65.125 41.3661 63.4104 41.3783 61.6958C41.3783 60.7881 41.9574 60.2041 42.8828 60.1935C44.6192 60.1723 46.3555 60.1723 48.0918 60.1935C49.0478 60.2041 49.6239 60.785 49.6239 61.7276C49.6351 63.425 49.6351 65.1225 49.6239 66.82C49.6239 67.7701 49.0478 68.3329 48.0918 68.3405C47.217 68.342 46.3392 68.3329 45.4598 68.3329ZM47.8651 66.6142V61.9106H43.1325V66.6142H47.8651Z" fill="#8174AE"/>
<path d="M55.2479 68.3329C54.3884 68.3329 53.5289 68.3419 52.6694 68.3329C51.7103 68.3208 51.1373 67.7625 51.1373 66.82C51.1261 65.1225 51.1261 63.4255 51.1373 61.7291C51.1373 60.7865 51.7149 60.2026 52.6694 60.192C54.4057 60.1738 56.1421 60.1738 57.8784 60.192C58.8068 60.2026 59.3783 60.7835 59.3844 61.6928C59.3967 63.4074 59.3967 65.122 59.3844 66.8366C59.3844 67.7565 58.8099 68.3177 57.8845 68.3314C57.0051 68.3435 56.1273 68.3329 55.2479 68.3329ZM57.6364 66.6112V61.9136H52.887V66.6112H57.6364Z" fill="#8174AE"/>
<path d="M31.6193 53.6518C31.6193 52.803 31.6101 51.9543 31.6193 51.1071C31.6316 50.1842 32.1831 49.6169 33.1131 49.6093C34.8709 49.5921 36.6282 49.5921 38.3849 49.6093C39.3042 49.6184 39.8664 50.1887 39.8725 51.1222C39.8848 52.8197 39.8848 54.5166 39.8725 56.2131C39.8725 57.1602 39.3087 57.7426 38.3405 57.7547C36.6041 57.7789 34.8678 57.7789 33.1315 57.7547C32.1693 57.7411 31.627 57.1496 31.6178 56.204C31.6132 55.3492 31.6193 54.5005 31.6193 53.6518ZM38.1245 56.03V51.3401H33.3751V56.03H38.1245Z" fill="#8174AE"/>
<path d="M35.7058 68.3329C34.8464 68.3329 33.9869 68.3435 33.1274 68.3329C32.2082 68.3193 31.6306 67.758 31.6244 66.8412C31.6122 65.1266 31.6122 63.4119 31.6244 61.6973C31.6244 60.7896 32.199 60.2041 33.1259 60.1935C34.8826 60.1723 36.6399 60.1723 38.3977 60.1935C39.2893 60.2056 39.8654 60.7987 39.8746 61.6671C39.8899 63.4008 39.8899 65.1356 39.8746 66.8714C39.8654 67.7792 39.2771 68.3253 38.3425 68.3374C37.4631 68.342 36.5853 68.3329 35.7058 68.3329ZM38.1204 66.6037V61.9137H33.3878V66.6037H38.1204Z" fill="#8174AE"/>
<path d="M55.2933 49.6033C56.1329 49.6033 56.9786 49.5942 57.8136 49.6033C58.8232 49.6169 59.3793 50.1585 59.3839 51.1434C59.3931 52.8217 59.3931 54.5 59.3839 56.1783C59.3839 57.1602 58.8278 57.7366 57.832 57.7487C56.113 57.7699 54.3945 57.7699 52.6766 57.7487C51.6853 57.7366 51.1338 57.1527 51.1292 56.1678C51.121 54.4894 51.121 52.8111 51.1292 51.1328C51.1292 50.1782 51.693 49.6199 52.6612 49.6048C53.536 49.5927 54.4139 49.6033 55.2933 49.6033ZM52.8849 51.3265V56.0165H57.6343V51.3265H52.8849Z" fill="#8174AE"/>
<path d="M49.6343 53.6518C49.6343 54.5005 49.6343 55.3493 49.6343 56.1965C49.6236 57.1481 49.0781 57.7351 48.1191 57.7487C46.3827 57.7749 44.6464 57.7749 42.9101 57.7487C41.9464 57.7366 41.3902 57.1541 41.378 56.2086C41.3688 54.5111 41.3688 52.8141 41.378 51.1177C41.378 50.1691 41.9479 49.6139 42.9192 49.6048C44.6382 49.5927 46.3572 49.5927 48.0762 49.6048C49.0766 49.6048 49.622 50.1691 49.6327 51.1616C49.6404 51.9921 49.6343 52.8212 49.6343 53.6518ZM47.8724 56.0255V51.3355H43.1383V56.0255H47.8724Z" fill="#8174AE"/>
<path d="M57.0373 40.7921C57.3478 40.7919 57.6554 40.8525 57.942 40.9705C58.2287 41.0885 58.4888 41.2615 58.7072 41.4795C58.9257 41.6975 59.0982 41.9561 59.2147 42.2404C59.3312 42.5247 59.3894 42.8289 59.3859 43.1356C59.3752 43.7454 59.1236 44.327 58.6849 44.7563C58.2461 45.1856 57.6549 45.4287 57.0373 45.4337C56.4097 45.4281 55.81 45.1773 55.3693 44.7361C54.9285 44.2949 54.6827 43.6993 54.6856 43.0796C54.696 42.4701 54.9482 41.889 55.388 41.4613C55.8278 41.0335 56.42 40.7932 57.0373 40.7921ZM57.1369 42.3973L56.8779 42.4094C56.7247 42.6469 56.4183 42.9041 56.4505 43.1159C56.4931 43.2537 56.5693 43.3789 56.6724 43.4808C56.7755 43.5826 56.9024 43.6579 57.0419 43.6999C57.1272 43.7163 57.2152 43.711 57.2979 43.6847C57.3805 43.6583 57.455 43.6116 57.5144 43.549C57.5738 43.4864 57.6162 43.41 57.6375 43.3268C57.6588 43.2437 57.6584 43.1565 57.6363 43.0736C57.5858 42.8255 57.3115 42.6212 57.1369 42.3973Z" fill="#8174AE"/>
<path d="M45.4718 91.3169C44.669 91.3169 43.8677 91.3169 43.0664 91.3169C42.4536 91.3169 42.0629 90.975 42.0645 90.4697C42.066 89.9644 42.4521 89.6255 43.0695 89.6239C44.6924 89.6169 46.3154 89.6169 47.9384 89.6239C48.5512 89.6239 48.9404 89.9689 48.9404 90.4727C48.9404 90.9765 48.5527 91.3108 47.9353 91.3169C47.1157 91.3229 46.2945 91.3169 45.4718 91.3169Z" fill="#8174AE"/>
</g>
<defs>
<clipPath id="clip0_152_101">
<rect width="35" height="58" fill="white" transform="translate(28 37.1642)"/>
</clipPath>
</defs>
</svg>
