<svg width="113" height="110" viewBox="0 0 113 110" fill="none" xmlns="http://www.w3.org/2000/svg">
<path d="M0 0V109.383H113C113 48.9717 62.4073 0 0 0Z" fill="#E6E1F8"/>
<path d="M40.1214 92.0812C38.85 92.0812 37.5999 92.2328 36.4063 92.0481C34.2923 91.7207 32.7949 89.8849 32.7755 87.806C32.7505 84.7334 32.7468 81.66 32.7875 78.5874C32.7986 77.7803 33.0088 76.9803 33.1357 76.1229C32.9505 76.1139 32.7283 76.0942 32.506 76.0933C30.1984 76.0933 27.8908 76.087 25.5842 76.0933C21.7339 76.105 18.917 78.8278 18.9263 82.5505C18.9263 83.9855 18.8698 85.4285 19.0578 86.841C19.2893 88.5881 20.9366 90.0696 22.6164 90.249V80.5901H24.4498V90.3907H32.7255V92.1646C32.5634 92.1718 32.4143 92.1853 32.2625 92.1853C29.34 92.1853 26.4167 92.2014 23.4942 92.1808C21.7913 92.1775 20.1595 91.5196 18.9571 90.3517C17.7547 89.1839 17.0802 87.6015 17.0817 85.9523C17.0724 84.39 16.9891 82.8133 17.1891 81.2681C17.6854 77.3821 20.9699 74.4566 24.9943 74.3355C27.9112 74.2458 30.8355 74.3687 33.7561 74.3768C33.8619 74.3729 33.9657 74.3482 34.0613 74.3041C34.1568 74.26 34.242 74.1974 34.3117 74.1203C36.0637 71.8262 38.4194 70.723 41.3493 70.7248C43.6569 70.7248 45.9645 70.715 48.2711 70.7248C51.1528 70.7392 53.4864 71.836 55.1911 74.1059C55.4041 74.3893 55.6217 74.375 55.9227 74.375C58.996 74.3642 62.0815 74.2055 65.14 74.4144C69.0857 74.6835 72.2082 77.9417 72.4239 81.7864C72.5165 83.5093 72.5369 85.2617 72.3249 86.9702C71.9619 89.901 69.2367 92.1359 66.1809 92.1673C63.163 92.1987 60.1434 92.1763 57.1246 92.1763C57.032 92.1763 56.9394 92.1637 56.807 92.1548V90.4095H65.066V80.5936H66.8985V90.3091C67.8877 90.1235 68.7851 89.6247 69.4496 88.8912C70.1515 88.128 70.5794 87.2267 70.5942 86.2105C70.6182 84.6124 70.7025 82.9936 70.5016 81.416C70.3179 79.9857 69.6121 78.6661 68.5117 77.6957C67.4112 76.7253 65.9887 76.1681 64.5011 76.1247C61.8898 76.0305 59.272 76.1023 56.657 76.1032C56.5761 76.1078 56.4957 76.1199 56.4171 76.1391C57.1107 80.0367 56.6894 83.9478 56.7505 87.841C56.7885 90.2095 54.7448 92.1189 52.3057 92.179C51.3649 92.2023 50.4232 92.179 49.4351 92.179V77.9193H51.2047V90.3064C53.3178 90.7548 54.9235 89.5244 54.9263 87.5083C54.93 84.6384 54.93 81.7703 54.9263 78.904C54.9161 75.2844 52.0983 72.5409 48.361 72.5185C45.996 72.5042 43.631 72.5042 41.266 72.5185C37.411 72.5374 34.6312 75.2503 34.6219 78.9937C34.6154 81.7873 34.6219 84.581 34.6219 87.3746C34.6219 89.519 36.0535 90.684 38.3065 90.3342V77.9193H40.1307L40.1214 92.0812Z" fill="#8174AE"/>
<path d="M35.2321 48.434C34.1607 47.383 33.1106 46.3489 32.055 45.3211C31.2475 44.5337 30.8827 44.5328 30.09 45.2996C28.9603 46.392 27.8315 47.4852 26.7037 48.5793C26.0555 49.2071 26.0555 49.6161 26.6907 50.2349C27.7899 51.303 28.8936 52.3657 30.0104 53.4455C29.9682 53.5513 29.9191 53.6544 29.8632 53.754C28.8817 55.2702 28.16 56.9301 27.726 58.6695C27.6417 59.0085 27.5019 59.118 27.1463 59.1117C25.724 59.0937 24.3007 59.1009 22.8774 59.1054C22.0126 59.1054 21.6922 59.4193 21.6903 60.2533C21.6903 61.8742 21.6903 63.4945 21.6903 65.1141C21.6903 65.8478 21.844 66.046 22.5839 66.2962V68.0001C21.1597 68.0611 19.8865 66.9239 19.8578 65.507C19.8182 63.626 19.8182 61.7448 19.8578 59.8632C19.8865 58.448 21.1023 57.3521 22.6172 57.3171C23.6553 57.2938 24.6942 57.2983 25.7323 57.3171C26.0814 57.3243 26.2157 57.205 26.3388 56.8911C26.7092 55.9539 27.1111 55.0293 27.5426 54.119C27.6824 53.8249 27.6445 53.6706 27.4158 53.4545C26.6953 52.7837 25.9906 52.0949 25.286 51.4034C24.0423 50.1739 24.046 48.6233 25.3008 47.3928C26.5046 46.2144 27.7145 45.0419 28.9307 43.8755C30.2271 42.6316 31.8707 42.6334 33.1745 43.8755C33.8598 44.5292 34.5441 45.183 35.2117 45.8557C35.4451 46.0924 35.6247 46.1364 35.9525 45.9902C36.8915 45.5687 37.8462 45.1759 38.8157 44.8243C39.1611 44.6996 39.238 44.5391 39.2324 44.2216C39.2167 43.2531 39.2204 42.2845 39.2324 41.3159C39.2454 39.6864 40.4158 38.5474 42.1095 38.5357C43.8782 38.5226 45.6471 38.5226 47.4164 38.5357C49.1369 38.5483 50.2953 39.6891 50.3064 41.3625C50.312 42.3311 50.3194 43.2997 50.2999 44.2674C50.2935 44.5804 50.4009 44.7068 50.7083 44.8198C51.6926 45.1839 52.664 45.5848 53.6261 46.0036C53.8984 46.122 54.0595 46.1166 54.2743 45.9041C54.9679 45.2064 55.6791 44.5248 56.3921 43.8459C57.644 42.6531 59.2997 42.6369 60.5517 43.8261C61.8036 45.0153 63.0676 46.2368 64.3038 47.4628C65.4761 48.6286 65.465 50.1802 64.2936 51.3541C63.5849 52.0632 62.8636 52.7606 62.1296 53.4464C61.9083 53.6527 61.8453 53.8051 61.9888 54.1083C62.429 55.0356 62.8367 55.9773 63.2121 56.9333C63.3324 57.24 63.4825 57.3198 63.7945 57.3153C64.7937 57.2983 65.7937 57.301 66.7938 57.3108C68.518 57.3279 69.6848 58.4606 69.6922 60.1287C69.6996 61.8802 69.7089 63.6308 69.6922 65.3814C69.6746 66.8746 68.4643 68.0315 66.9596 68.0073V66.3024C67.7356 66.1536 67.8782 65.6083 67.8624 64.9007C67.8282 63.3555 67.8541 61.8093 67.8504 60.2632C67.8504 59.4247 67.53 59.109 66.6734 59.1063C65.2502 59.1 63.8269 59.1063 62.4037 59.1063C62.1462 59.1063 61.9286 59.1206 61.8481 58.7825C61.399 56.8992 60.6072 55.1531 59.4988 53.4608C60.5267 52.4736 61.5493 51.491 62.5666 50.5129C62.7167 50.3694 62.8722 50.2295 63.0121 50.0761C63.4278 49.6205 63.4371 49.1793 62.9917 48.7399C61.7379 47.5052 60.4745 46.2796 59.2016 45.0629C58.7321 44.6144 58.2209 44.6306 57.7339 45.0987C56.6023 46.1875 55.4837 47.2888 54.3429 48.4009C54.2301 48.3584 54.12 48.3096 54.0132 48.2547C52.4293 47.2982 50.6964 46.5957 48.8813 46.174C48.5535 46.0987 48.4563 45.9687 48.46 45.6494C48.4776 44.253 48.4711 42.8558 48.4665 41.4585C48.4665 40.6585 48.1377 40.3357 47.3155 40.3321C45.6227 40.3261 43.9303 40.3261 42.2382 40.3321C41.4131 40.3321 41.0872 40.6558 41.0844 41.4549C41.0844 42.8513 41.0909 44.2485 41.0724 45.6449C41.0724 45.8054 40.9464 46.0781 40.8298 46.1068C38.8446 46.5796 36.9534 47.3659 35.2321 48.434Z" fill="#8174AE"/>
<path d="M33.6663 62.6552H31.8301C31.9782 58.3835 33.7052 54.8984 37.3333 52.4868C41.817 49.5057 46.5868 49.2959 51.2983 51.9245C55.4829 54.2607 57.4932 57.9575 57.7145 62.6489H55.8718C55.7227 58.9772 54.1744 55.9863 51.0372 53.8527C48.9361 52.424 46.5683 51.8231 44.0051 51.9855C38.6102 52.3272 33.8349 56.5647 33.6663 62.6552Z" fill="#8174AE"/>
<path d="M44.7458 69.8307C44.0192 69.8287 43.3001 69.688 42.6297 69.4168C41.9592 69.1456 41.3505 68.7491 40.8384 68.25C40.3262 67.7508 39.9206 67.1589 39.6447 66.5079C39.3688 65.8569 39.2281 65.1596 39.2305 64.4559C39.2388 61.5125 41.752 59.0929 44.7865 59.1072C46.2538 59.1188 47.6569 59.6916 48.6901 60.7006C49.7234 61.7097 50.303 63.0734 50.3027 64.4945C50.2956 65.9156 49.7063 67.2758 48.6644 68.2763C47.6224 69.2768 46.213 69.8359 44.7458 69.8307ZM44.7578 68.0424C45.2437 68.0456 45.7255 67.9555 46.1753 67.7774C46.6251 67.5992 47.034 67.3366 47.3784 67.0045C47.7228 66.6725 47.9958 66.2776 48.1818 65.8428C48.3677 65.408 48.4629 64.9418 48.4618 64.4712C48.4564 63.5212 48.063 62.6119 47.3676 61.9419C46.6722 61.2719 45.7313 60.8957 44.7504 60.8955C43.7798 60.9063 42.8522 61.2846 42.1661 61.9496C41.48 62.6145 41.0901 63.5133 41.0797 64.4533C41.0763 64.9232 41.1689 65.3892 41.3522 65.8244C41.5355 66.2596 41.8058 66.6554 42.1477 66.989C42.4895 67.3226 42.8962 67.5874 43.3441 67.7682C43.7921 67.949 44.2725 68.0421 44.7578 68.0424Z" fill="#8174AE"/>
<path d="M29.0441 73.4063C28.3177 73.4032 27.599 73.2616 26.9291 72.9895C26.2592 72.7174 25.6512 72.3202 25.1398 71.8205C24.6284 71.3208 24.2237 70.7285 23.9487 70.0773C23.6737 69.4261 23.5339 68.7289 23.5372 68.0253C23.5501 65.0829 26.0698 62.6659 29.1024 62.6857C30.5701 62.6984 31.9732 63.2725 33.0057 64.2828C34.0383 65.2931 34.6167 66.6576 34.6149 68.0791C34.6103 68.7832 34.4626 69.4795 34.1801 70.1282C33.8977 70.777 33.486 71.3655 32.9687 71.8601C32.4514 72.3548 31.8386 72.746 31.1652 73.0112C30.4918 73.2765 29.7711 73.4108 29.0441 73.4063ZM29.0441 71.6189C29.5292 71.624 30.0105 71.5361 30.4604 71.3603C30.9102 71.1846 31.3198 70.9244 31.6654 70.5947C32.0111 70.2651 32.286 69.8725 32.4743 69.4395C32.6627 69.0065 32.7608 68.5418 32.7629 68.072C32.7642 67.122 32.3772 66.2101 31.6864 65.5356C30.9957 64.8611 30.0574 64.4788 29.0765 64.4721C28.106 64.4769 27.176 64.8493 26.4853 65.5096C25.7947 66.17 25.3982 67.0658 25.3808 68.0056C25.3742 68.476 25.4638 68.943 25.6445 69.3797C25.8251 69.8164 26.0932 70.2142 26.4333 70.5501C26.7734 70.886 27.1788 71.1533 27.6261 71.3368C28.0734 71.5202 28.5537 71.6161 29.0395 71.6189H29.0441Z" fill="#8174AE"/>
<path d="M60.4344 73.4063C59.7078 73.4041 58.9889 73.2632 58.3186 72.9918C57.6483 72.7203 57.0398 72.3236 56.5279 71.8243C56.0159 71.325 55.6106 70.7329 55.3351 70.0818C55.0595 69.4307 54.9191 68.7335 54.9219 68.0298C54.9321 65.0855 57.4471 62.6677 60.4779 62.6838C61.9452 62.6961 63.348 63.2695 64.3807 64.2791C65.4134 65.2887 65.9923 66.6526 65.9913 68.0738C65.9837 69.4943 65.3942 70.8539 64.3522 71.8538C63.3103 72.8536 61.9011 73.4121 60.4344 73.4063ZM60.4436 71.6189C60.9291 71.622 61.4105 71.532 61.8599 71.3541C62.3093 71.1762 62.718 70.9139 63.0623 70.5824C63.4066 70.2509 63.6797 69.8566 63.866 69.4224C64.0523 68.9881 64.148 68.5225 64.1476 68.0522C64.1435 67.1027 63.7517 66.1933 63.0577 65.5226C62.3638 64.8519 61.424 64.4742 60.4436 64.4721C59.4729 64.4814 58.5445 64.8585 57.8574 65.5227C57.1703 66.1868 56.779 67.0852 56.7674 68.0253C56.7634 68.4955 56.8555 68.9619 57.0384 69.3975C57.2213 69.8331 57.4914 70.2293 57.8331 70.5634C58.1748 70.8974 58.5814 71.1626 59.0294 71.3438C59.4775 71.525 59.9581 71.6185 60.4436 71.6189Z" fill="#8174AE"/>
<path d="M48.4286 92.166H41.1133V90.4281H48.4286V92.166Z" fill="#8174AE"/>
</svg>
