<svg width="113" height="110" viewBox="0 0 113 110" fill="none" xmlns="http://www.w3.org/2000/svg">
<path d="M0 0V109.383H113C113 48.9717 62.4073 0 0 0Z" fill="#E6E1F8"/>
<g clip-path="url(#clip0_152_147)">
<path d="M25.1816 84.7926L23.4171 83.7629C24.2317 82.9935 24.0114 82.046 24.0114 81.1422C24.0114 75.7028 24.0114 70.2633 24.0114 64.8238V64.1384L23.8561 64.0276C23.5406 64.4106 23.1266 64.7449 22.9229 65.18C21.4539 68.3298 19.9648 71.4728 18.6227 74.678C18.2003 75.686 18.0484 76.8804 18.0384 77.9908C17.9833 83.9762 18.0134 89.9616 18.0134 95.9487V96.7467H16.0102V96.0747C16.0102 90.0893 16.0102 84.1022 16.0102 78.1168C15.9957 76.3282 16.3796 74.5591 17.1336 72.9394C18.3923 70.223 19.6377 67.5033 20.8696 64.7701C21.4623 63.448 22.3387 62.4317 23.6875 61.8975C24.0815 61.7412 24.0214 61.4691 24.0214 61.1886C24.0214 56.6529 24.0214 52.1172 24.0214 47.5815C24.0214 45.7991 23.9379 43.9983 24.1532 42.2378C24.5689 38.8629 27.492 36.3447 30.8824 36.3061C34.5266 36.2641 38.1708 36.2943 41.8167 36.2943H52.6257C57.0195 36.2943 60.011 39.2997 60.011 43.7178C60.011 55.2899 60.0076 66.8621 60.0009 78.4343C60.0009 78.9382 60.0911 79.2994 60.5401 79.5766C60.9086 79.8339 61.2604 80.1144 61.5935 80.4165C63.8054 78.9231 66.0874 79.6656 67.4613 81.5555C68.4929 80.7979 69.6314 80.4636 70.9118 80.7643C72.6262 81.1674 73.9701 82.6693 73.9884 84.4365C74.0335 88.4901 74.0035 92.5436 74.0018 96.5972C73.9917 96.6493 73.9754 96.7001 73.9534 96.7484H72.0103V96.0495C72.0103 92.29 72.0103 88.5304 72.0103 84.7708C72.0103 83.2723 70.6431 82.2879 69.3159 82.807C68.9367 82.9371 68.6076 83.1839 68.3755 83.5125C68.1433 83.8411 68.0197 84.2349 68.0222 84.6381C67.9955 85.2462 68.0222 85.856 68.0222 86.4658C68.0222 87.2503 67.6299 87.7173 67.0089 87.7072C66.3879 87.6972 66.0273 87.2369 66.024 86.4356C66.024 85.5536 66.024 84.6717 66.024 83.7897C66.0106 82.5617 65.1592 81.663 64.0207 81.6647C62.8822 81.6664 62.0376 82.5584 62.0175 83.7914C62.0175 84.6734 62.0175 85.5553 62.0175 86.4372C62.0175 87.2369 61.6519 87.6988 61.0326 87.7072C60.4133 87.7156 60.031 87.252 60.021 86.4641C60.021 85.2462 60.021 84.0283 60.021 82.8104C60.021 81.5924 59.1863 80.6702 58.0478 80.6567C56.8792 80.6416 56.0329 81.5437 56.0245 82.8171C56.0245 84.0148 56.0245 85.2109 56.0245 86.4087C56.0245 87.2486 55.6439 87.7223 55.0046 87.7072C54.3652 87.6921 54.028 87.2335 54.028 86.4305C54.028 81.8512 54.028 77.2735 54.028 72.6941C54.028 71.0512 52.4371 70.0584 51.0699 70.8277C50.327 71.2477 50.0265 71.918 50.0282 72.768C50.0371 76.5276 50.0371 80.2872 50.0282 84.0468C50.0282 85.8526 50.0282 87.6585 50.0282 89.4644C50.0282 90.049 49.8813 90.5278 49.2837 90.6941C48.6861 90.8604 48.3071 90.5261 48.025 90.0221C47.4185 88.9447 46.8064 87.873 46.1887 86.8068C45.541 85.6998 44.3691 85.3537 43.3642 85.9585C42.3859 86.5498 42.1138 87.7257 42.7332 88.8143C44.0269 91.0905 45.334 93.35 46.6344 95.6279C46.7479 95.8261 46.8531 96.0294 46.9933 96.2864L45.3023 97.2943C45.1737 97.0877 45.0602 96.9164 44.9584 96.74C43.6886 94.5236 42.4188 92.3068 41.1489 90.0893C41.0855 90.0064 41.0353 89.914 41.0004 89.8155C40.8 88.7504 40.0839 88.6732 39.1774 88.7152C37.6466 88.784 36.1108 88.7336 34.54 88.7336C35.4231 91.3996 34.8455 94.079 35.0725 96.7585H33.0325V96.1688C33.0325 94.6569 33.0209 93.145 33.0325 91.6331C33.0508 90.5569 32.7573 89.4987 32.1878 88.5875C31.5652 87.5712 30.9809 86.528 30.3415 85.5217C29.981 84.9573 29.9876 84.4634 30.3232 83.8872C31.7455 81.4446 33.1344 78.9836 34.5483 76.536C34.8688 75.9816 35.0257 75.4105 34.8455 74.7906C34.6151 73.9994 34.0959 73.487 33.2729 73.3543C32.3798 73.2098 31.6653 73.5324 31.2046 74.3202C30.2647 75.9296 29.3483 77.5523 28.4218 79.1684L25.1816 84.7926ZM26.0162 79.039L26.1398 79.0726C26.2667 78.8593 26.3969 78.6476 26.5204 78.4326C27.4903 76.7426 28.4435 75.0459 29.4284 73.3661C30.3833 71.7382 32.1344 70.9789 33.8472 71.409C36.4848 72.0809 37.7101 74.9535 36.3512 77.3927C35.0675 79.6975 33.7287 81.9704 32.4199 84.2601C32.0994 84.8195 33.1127 86.7027 33.7554 86.706C35.8999 86.7183 38.0451 86.7183 40.1907 86.706C40.2676 86.709 40.3442 86.6955 40.4156 86.6666C40.4869 86.6376 40.5514 86.5938 40.6047 86.538C40.962 85.9434 41.2825 85.3268 41.6247 84.6986C41.0822 84.6986 40.5229 84.712 39.9553 84.6986C39.1645 84.6809 38.4125 84.3502 37.8625 83.7781C37.3124 83.2061 37.0087 82.4388 37.0173 81.6428C37.0237 80.8574 37.3352 80.1055 37.8851 79.548C38.4351 78.9906 39.1799 78.6716 39.9604 78.6594C41.3342 78.6359 42.7098 78.6241 44.0837 78.6594C45.3423 78.6963 46.2538 79.3313 46.7546 80.4988C47.2554 81.6664 47.0317 82.7146 46.2355 83.6654C46.1386 83.7813 46.0385 83.8956 46.0201 83.9174L48.0066 85.6897V85.048C48.0066 80.9547 48.0066 76.8597 48.0066 72.763C48.0066 70.3691 49.7244 68.5633 51.983 68.5633C54.2751 68.5549 55.9895 70.3574 56.0028 72.7899C56.0028 74.7217 56.0028 76.6536 56.0028 78.5855C56.0028 78.7534 56.0212 78.9349 56.0296 79.0894L58.001 78.5586V43.785C58.001 40.4067 55.9344 38.3169 52.5974 38.3152H31.4166C28.0779 38.3152 26.0062 40.4067 26.0046 43.7766V79.039H26.0162ZM42.0704 82.6777C42.6747 82.6777 43.279 82.6861 43.8833 82.6777C44.5694 82.6659 45.0051 82.2678 45.0085 81.6781C45.0118 81.0885 44.5778 80.6702 43.8933 80.6702C42.6447 80.6579 41.3954 80.6579 40.1457 80.6702C39.4562 80.6702 39.0239 81.075 39.0205 81.668C39.0172 82.261 39.4495 82.6659 40.134 82.676C40.7683 82.6961 41.4127 82.6777 42.0587 82.6777H42.0704Z" fill="#8174AE"/>
<path d="M50.0153 57.471V59.4869C50.3275 59.4869 50.628 59.4768 50.9284 59.4869C51.5962 59.5154 51.9818 59.8799 51.9952 60.5452C52.0152 61.5531 52.0219 62.561 51.9952 63.569C51.9618 64.7163 51.0937 65.5277 49.9035 65.5328C47.3009 65.5428 44.6984 65.5328 42.0976 65.5328C39.4967 65.5328 36.8925 65.5328 34.29 65.5328C32.8059 65.5328 32.0113 64.7348 32.0063 63.2481C32.0063 62.43 32.0063 61.6102 32.0063 60.7921C32.0063 59.8144 32.3402 59.4919 33.3318 59.4852H33.9995V57.4693C33.654 57.4693 33.3318 57.4844 33.0079 57.4693C32.4303 57.4357 32.0314 57.1199 32.0197 56.5387C31.9996 55.5307 31.9596 54.511 32.1182 53.5283C32.3009 52.388 32.8792 51.3497 33.7505 50.5977C34.6218 49.8458 35.7297 49.4289 36.8775 49.421C40.2908 49.3896 43.7046 49.3896 47.119 49.421C49.7899 49.4495 51.925 51.6401 51.9918 54.3363C52.0068 54.9663 51.9918 55.5962 51.9918 56.2262C51.9918 57.1216 51.6346 57.466 50.7331 57.476L50.0153 57.471ZM49.9535 55.4249C50.1973 53.0613 48.8868 51.3125 46.9804 51.4956V53.4073H44.9955V51.4671H42.9923V53.3973H40.9891V51.4503H39.0026V53.3838H36.9994V51.4637C35.0178 51.4184 33.7408 53.1638 34.0847 55.4249H49.9535ZM34.0346 63.4883H49.9619V61.5481H34.0296L34.0346 63.4883ZM36.0378 59.4449H47.957V57.4979H36.0328L36.0378 59.4449Z" fill="#8174AE"/>
<path d="M45.9738 40.373V42.315H38.0527V40.373H45.9738Z" fill="#8174AE"/>
<path d="M34.0449 40.3429H35.953V42.3016H34.0449V40.3429Z" fill="#8174AE"/>
</g>
<defs>
<clipPath id="clip0_152_147">
<rect width="58" height="61" fill="white" transform="translate(16 36.2876)"/>
</clipPath>
</defs>
</svg>
