<svg width="321" height="84" viewBox="0 0 321 84" fill="none" xmlns="http://www.w3.org/2000/svg">
<path d="M48.1451 71.2219L47.7972 73.1296H44.5849L42.7931 83.3348H40.3462L42.1495 73.1296H38.9082L39.2561 71.2219H48.1451Z" fill="#002B79"/>
<path d="M54.2678 73.1121L53.688 76.2549H57.7469L57.4627 78.1162H53.4039L52.824 81.3923H57.4222L57.0743 83.3232H50.0176L52.1688 71.1929H59.1965L58.866 73.1006L54.2678 73.1121Z" fill="#002B79"/>
<path d="M63.37 74.0572C64.0476 73.1303 64.9334 72.3756 65.9561 71.8538C66.9662 71.3296 68.0885 71.059 69.2264 71.0652C70.4378 71.0219 71.6286 71.3875 72.6069 72.1031C73.0586 72.4534 73.4359 72.8901 73.7166 73.388C73.9974 73.8858 74.176 74.4346 74.2421 75.0024H71.4472C71.2887 74.4822 70.9493 74.0359 70.4905 73.7441C69.9875 73.4471 69.4101 73.3003 68.8263 73.3208C68.1389 73.3163 67.4611 73.4837 66.8549 73.8079C66.2404 74.1375 65.7167 74.6135 65.3299 75.1937C64.9099 75.8208 64.6291 76.5306 64.5065 77.2753C64.4545 77.58 64.4255 77.8882 64.4195 78.1973C64.3978 78.6026 64.458 79.0082 64.5964 79.3897C64.7349 79.7713 64.9489 80.121 65.2255 80.4181C65.5157 80.6968 65.8598 80.9132 66.2368 81.0538C66.6137 81.1944 67.0155 81.2563 67.4173 81.2357C68.0556 81.2458 68.686 81.0949 69.2505 80.7969C69.815 80.499 70.2953 80.0636 70.6471 79.5309H73.4419C72.8569 80.731 71.939 81.7374 70.7978 82.4301C69.6701 83.1123 68.3758 83.4695 67.0578 83.4622C66.1199 83.4802 65.1919 83.2672 64.3558 82.8418C63.5937 82.4519 62.9628 81.8471 62.5409 81.1023C62.1081 80.3099 61.8884 79.4189 61.903 78.5162C61.9051 76.9188 62.4192 75.3641 63.37 74.0804V74.0572Z" fill="#002B79"/>
<path d="M89.2838 71.2219L87.15 83.3348H84.7031L85.625 78.1452H80.4818L79.5309 83.3348H77.084L79.2352 71.2219H81.6415L80.7602 76.2376H85.9788L86.8601 71.2219H89.2838Z" fill="#002B79"/>
<path d="M102.162 83.3349H99.7154L95.7087 75.02L94.2301 83.3349H91.7832L93.9344 71.2046H96.364L100.394 79.5311L101.867 71.2046H104.296L102.162 83.3349Z" fill="#002B79"/>
<path d="M109.77 82.8015C109.005 82.3873 108.375 81.7612 107.955 80.9982C107.518 80.1868 107.298 79.2758 107.318 78.3541C107.296 77.0442 107.615 75.7512 108.245 74.6025C108.844 73.5121 109.733 72.609 110.814 71.9932C111.937 71.3536 113.21 71.0272 114.502 71.0481C115.446 71.0284 116.38 71.2499 117.216 71.6917C117.981 72.1014 118.611 72.7237 119.03 73.4834C119.464 74.2921 119.684 75.1983 119.668 76.1159C119.693 77.4339 119.377 78.736 118.752 79.8965C118.157 80.9893 117.267 81.8932 116.183 82.5058C115.051 83.1474 113.768 83.4756 112.467 83.4567C111.526 83.474 110.598 83.2483 109.77 82.8015ZM115.116 80.5575C115.783 80.1157 116.317 79.5002 116.659 78.7774C117.026 78.0184 117.212 77.185 117.204 76.342C117.228 75.9348 117.17 75.5268 117.034 75.1423C116.898 74.7578 116.685 74.4046 116.41 74.1038C116.112 73.8215 115.76 73.6033 115.375 73.4626C114.99 73.322 114.581 73.262 114.171 73.2863C113.361 73.2736 112.565 73.5038 111.887 73.9473C111.222 74.3861 110.689 74.9974 110.344 75.7158C109.976 76.4723 109.79 77.3041 109.799 78.1453C109.776 78.5529 109.834 78.961 109.97 79.3461C110.105 79.7312 110.315 80.0857 110.588 80.3893C110.881 80.6749 111.23 80.8961 111.614 81.0389C111.997 81.1817 112.406 81.2428 112.815 81.2185C113.631 81.2347 114.433 81.0043 115.116 80.5575Z" fill="#002B79"/>
<path d="M125.447 81.4735H129.437L129.106 83.3348H122.67L124.821 71.2219H127.251L125.447 81.4735Z" fill="#002B79"/>
<path d="M135.868 82.8016C135.102 82.3874 134.472 81.7613 134.053 80.9983C133.615 80.1869 133.396 79.2759 133.415 78.3542C133.393 77.0443 133.713 75.7513 134.343 74.6026C134.942 73.5122 135.831 72.6091 136.912 71.9933C138.032 71.3545 139.304 71.0281 140.594 71.0482C141.54 71.0277 142.476 71.2493 143.313 71.6918C144.078 72.1015 144.709 72.7237 145.128 73.4835C145.562 74.2922 145.781 75.1984 145.766 76.116C145.788 77.4337 145.472 78.7351 144.85 79.8966C144.254 80.9893 143.364 81.8933 142.281 82.5058C141.149 83.1475 139.866 83.4757 138.564 83.4568C137.624 83.4741 136.695 83.2484 135.868 82.8016ZM141.214 80.5576C141.879 80.1143 142.412 79.4991 142.757 78.7775C143.123 78.0185 143.31 77.185 143.302 76.3421C143.325 75.935 143.266 75.5273 143.13 75.143C142.993 74.7587 142.782 74.4055 142.507 74.1039C142.21 73.8216 141.858 73.6034 141.473 73.4627C141.088 73.3221 140.678 73.2621 140.269 73.2864C139.459 73.2737 138.663 73.5039 137.984 73.9474C137.32 74.3862 136.786 74.9975 136.442 75.7159C136.072 76.4719 135.884 77.3038 135.891 78.1454C135.869 78.5533 135.928 78.9616 136.065 79.3467C136.201 79.7317 136.412 80.0861 136.686 80.3894C136.978 80.6756 137.327 80.8972 137.711 81.04C138.095 81.1828 138.504 81.2437 138.912 81.2186C139.729 81.2348 140.531 81.0044 141.214 80.5576Z" fill="#002B79"/>
<path d="M150.642 74.0575C151.329 73.1325 152.22 72.3785 153.246 71.8541C154.26 71.3312 155.386 71.0607 156.528 71.0655C157.732 71.0166 158.918 71.3673 159.902 72.0629C160.344 72.3981 160.714 72.8188 160.99 73.2999C161.266 73.7811 161.442 74.3128 161.508 74.8635H158.714C158.547 74.3785 158.214 73.9679 157.774 73.7038C157.279 73.4225 156.715 73.284 156.145 73.3037C155.45 73.2975 154.764 73.4649 154.15 73.7908C153.529 74.1195 152.997 74.5953 152.602 75.1766C152.18 75.8034 151.898 76.5132 151.773 77.2582C151.711 77.5734 151.682 77.894 151.686 78.215C151.662 78.6243 151.725 79.034 151.87 79.4176C152.015 79.8011 152.239 80.15 152.527 80.4416C153.162 81.0089 153.996 81.3009 154.846 81.2534C155.706 81.2693 156.548 81.0069 157.247 80.5054C157.952 79.9845 158.487 79.2661 158.783 78.4411H154.62L154.927 76.603H161.491L161.108 78.7195C160.776 79.5798 160.28 80.3675 159.647 81.0388C158.983 81.7684 158.181 82.3596 157.287 82.7783C156.382 83.2104 155.391 83.4343 154.388 83.4336C153.444 83.4539 152.509 83.2386 151.669 82.8073C150.91 82.4102 150.279 81.8073 149.848 81.0678C149.403 80.2776 149.179 79.3825 149.198 78.4759C149.195 76.8866 149.701 75.3381 150.642 74.0575Z" fill="#002B79"/>
<path d="M176.156 71.2219L170.676 79.1136L169.905 83.3348H167.458L168.223 79.1136L165.498 71.2219H168.241L169.853 76.7188L173.395 71.2219H176.156Z" fill="#002B79"/>
<path d="M186.157 82.6275C185.781 82.3727 185.477 82.0255 185.274 81.6194C185.071 81.2133 184.976 80.7617 184.997 80.3082C185.001 80.1511 185.012 79.9944 185.032 79.8385H187.514C187.482 80.055 187.501 80.2757 187.569 80.4837C187.636 80.6918 187.75 80.8817 187.902 81.0388C188.084 81.2025 188.296 81.3279 188.528 81.4076C188.759 81.4873 189.004 81.5196 189.247 81.5027C189.741 81.531 190.23 81.401 190.645 81.1316C190.812 81.0106 190.947 80.8495 191.036 80.6631C191.125 80.4768 191.166 80.271 191.155 80.0646C191.163 79.8634 191.119 79.6634 191.026 79.4845C190.934 79.3055 190.796 79.1538 190.627 79.0441C190.107 78.701 189.551 78.4152 188.969 78.1918C188.39 77.957 187.825 77.6899 187.276 77.3916C186.836 77.1399 186.458 76.7932 186.168 76.3769C185.845 75.8922 185.683 75.3181 185.705 74.7359C185.689 74.0381 185.891 73.3529 186.284 72.776C186.686 72.2088 187.239 71.765 187.879 71.4946C188.612 71.182 189.402 71.0278 190.198 71.0423C190.962 71.0241 191.721 71.1684 192.425 71.4656C193.013 71.7115 193.511 72.1326 193.851 72.6717C194.173 73.2216 194.315 73.858 194.257 74.4924H191.671V74.301C191.674 74.1238 191.638 73.948 191.565 73.7865C191.491 73.6251 191.383 73.4819 191.248 73.3675C190.916 73.1129 190.506 72.9836 190.088 73.0022C189.617 72.9798 189.152 73.1144 188.766 73.3849C188.604 73.5037 188.473 73.6604 188.385 73.8413C188.297 74.0222 188.255 74.2218 188.262 74.4228C188.259 74.7036 188.362 74.9751 188.552 75.1824C188.753 75.4038 188.99 75.59 189.253 75.7332C189.532 75.8898 189.932 76.0927 190.448 76.3131C191.028 76.5574 191.592 76.8402 192.135 77.1596C192.579 77.4317 192.962 77.793 193.26 78.2207C193.584 78.6946 193.748 79.2591 193.73 79.8327C193.736 80.4968 193.533 81.146 193.15 81.6882C192.746 82.2544 192.191 82.6962 191.549 82.9638C190.791 83.2873 189.973 83.4455 189.149 83.4277C188.092 83.4798 187.046 83.2 186.157 82.6275Z" fill="#002B79"/>
<path d="M201.67 73.1123L201.09 76.255H205.149L204.818 78.1279H200.76L200.18 81.404H204.778L204.43 83.3349H197.391L199.548 71.2046H206.575L206.245 73.1123H201.67Z" fill="#002B79"/>
<path d="M218.392 72.0629C218.703 72.3355 218.949 72.6734 219.113 73.0523C219.278 73.4312 219.356 73.8418 219.343 74.2547C219.343 74.4818 219.325 74.7086 219.291 74.9331C219.146 75.735 218.776 76.479 218.224 77.0785C217.603 77.7494 216.795 78.2181 215.905 78.4238L217.934 83.335H215.105L213.301 78.6151H212.142L211.33 83.335H208.883L211.034 71.2221H215.586C216.593 71.1504 217.591 71.4495 218.392 72.0629ZM216.827 74.5678C216.837 74.3774 216.805 74.1871 216.733 74.0106C216.66 73.8341 216.55 73.6759 216.409 73.5473C216.046 73.2762 215.597 73.1463 215.145 73.182H213.116L212.472 76.806H214.501C215.06 76.8338 215.61 76.6634 216.055 76.3247C216.454 75.9811 216.715 75.5057 216.792 74.9853C216.815 74.7766 216.827 74.6374 216.827 74.5678Z" fill="#002B79"/>
<path d="M226.056 71.2219L227.674 80.8531L232.707 71.2219H235.299L228.712 83.3348H225.761L223.441 71.2219H226.056Z" fill="#002B79"/>
<path d="M241.434 71.2219L239.3 83.3348H236.854L239.005 71.2219H241.434Z" fill="#002B79"/>
<path d="M245.801 74.0572C246.479 73.1303 247.365 72.3756 248.388 71.8538C249.398 71.3296 250.52 71.059 251.658 71.0652C252.869 71.0219 254.06 71.3875 255.038 72.1031C255.49 72.4527 255.867 72.8895 256.147 73.3875C256.427 73.8855 256.604 74.4347 256.668 75.0024H253.855C253.697 74.4822 253.358 74.0359 252.899 73.7441C252.396 73.4471 251.818 73.3003 251.235 73.3208C250.547 73.3163 249.869 73.4837 249.263 73.8079C248.649 74.1375 248.125 74.6135 247.738 75.1937C247.318 75.8208 247.037 76.5306 246.915 77.2753C246.863 77.58 246.834 77.8882 246.828 78.1973C246.806 78.6026 246.866 79.0082 247.005 79.3897C247.143 79.7713 247.357 80.121 247.634 80.4181C247.924 80.6968 248.268 80.9132 248.645 81.0538C249.022 81.1944 249.424 81.2563 249.826 81.2357C250.464 81.2458 251.094 81.0949 251.659 80.7969C252.223 80.499 252.704 80.0636 253.055 79.5309H255.85C255.265 80.731 254.347 81.7374 253.206 82.4301C252.078 83.1123 250.784 83.4695 249.466 83.4622C248.528 83.4802 247.6 83.2672 246.764 82.8418C246.002 82.4519 245.371 81.8471 244.949 81.1023C244.516 80.3099 244.297 79.4189 244.311 78.5162C244.313 76.9188 244.827 75.3641 245.778 74.0804L245.801 74.0572Z" fill="#002B79"/>
<path d="M263.764 73.1121L263.184 76.2549H267.243L266.959 78.1162H262.9L262.32 81.3923H266.918L266.57 83.3232H259.514L261.665 71.1929H268.693L268.368 73.1006L263.764 73.1121Z" fill="#002B79"/>
<path d="M272.608 82.6274C272.233 82.3714 271.93 82.024 271.727 81.6181C271.524 81.2123 271.428 80.7614 271.448 80.308C271.452 80.151 271.463 79.9942 271.483 79.8384H273.964C273.934 80.0553 273.954 80.2763 274.022 80.4843C274.09 80.6924 274.206 80.882 274.359 81.0386C274.54 81.2029 274.753 81.3287 274.984 81.4084C275.215 81.4881 275.46 81.5201 275.704 81.5025C276.195 81.5296 276.683 81.3997 277.096 81.1314C277.264 81.0107 277.399 80.8499 277.489 80.6636C277.579 80.4772 277.621 80.2713 277.612 80.0645C277.619 79.8627 277.574 79.6623 277.48 79.4833C277.387 79.3044 277.248 79.1529 277.078 79.044C276.559 78.7019 276.005 78.4162 275.426 78.1916C274.847 77.9569 274.281 77.6897 273.732 77.3914C273.29 77.1416 272.909 76.7947 272.619 76.3767C272.298 75.8914 272.138 75.3173 272.161 74.7358C272.145 74.0379 272.348 73.3526 272.741 72.7759C273.145 72.2085 273.699 71.7647 274.341 71.4944C275.073 71.1805 275.864 71.0263 276.661 71.0422C277.426 71.0233 278.187 71.1676 278.893 71.4655C279.479 71.713 279.974 72.1339 280.314 72.6715C280.638 73.2204 280.78 73.8577 280.72 74.4922H278.133V74.3009C278.139 74.1233 278.104 73.9467 278.031 73.7848C277.957 73.6229 277.848 73.4801 277.71 73.3673C277.38 73.11 276.968 72.9803 276.55 73.002C276.081 72.9796 275.618 73.1143 275.234 73.3847C275.072 73.5036 274.941 73.6603 274.853 73.8411C274.765 74.022 274.723 74.2217 274.73 74.4227C274.725 74.7027 274.827 74.9741 275.014 75.1822C275.218 75.4037 275.457 75.5899 275.721 75.7331C275.994 75.8897 276.394 76.0926 276.916 76.3129C277.495 76.5572 278.056 76.84 278.597 77.1595C279.054 77.4281 279.449 77.7896 279.757 78.2206C280.081 78.6944 280.245 79.259 280.227 79.8326C280.233 80.4966 280.03 81.1457 279.647 81.6881C279.246 82.2553 278.694 82.6976 278.052 82.9637C277.294 83.2857 276.476 83.4438 275.652 83.4276C274.578 83.4895 273.512 83.2094 272.608 82.6274Z" fill="#002B79"/>
<path d="M25.78 55.0444L25.7452 55.085L25.1016 61.1617H34.9995L37.1101 41.0586L25.78 55.0444Z" fill="#002B79"/>
<path d="M145.053 61.817L150.208 12.687H166.356C170.682 12.687 173.794 13.8911 175.692 16.2994C177.191 18.2322 177.953 20.8802 177.976 24.2432C177.973 25.1344 177.923 26.0247 177.825 26.9105C177.639 28.8637 177.191 30.7828 176.492 32.6162C175.945 34.071 175.148 35.4191 174.138 36.5997C173.203 37.6381 172.075 38.4833 170.815 39.0872C169.55 39.713 168.203 40.158 166.814 40.4092C165.303 40.6692 163.772 40.7934 162.239 40.7803H157.943L155.722 61.817H145.053ZM158.714 33.341H162.117C164.135 33.341 165.523 32.8481 166.281 31.8624C167.046 30.8708 167.551 29.1603 167.812 26.7308C167.887 25.8436 167.927 25.0318 167.927 24.3012C167.927 23.9475 167.927 23.6112 167.927 23.2981C167.922 22.849 167.815 22.4071 167.614 22.0054C167.413 21.6037 167.124 21.2527 166.768 20.9787C166.057 20.4376 164.959 20.167 163.474 20.167H160.129L158.714 33.341Z" fill="#002B79"/>
<path d="M193.123 62.5011C190.799 62.5659 188.482 62.1982 186.292 61.4168C184.58 60.8034 183.1 59.6752 182.054 58.1871C181.041 56.6705 180.387 54.9435 180.14 53.1367C179.977 52.0485 179.897 50.9493 179.903 49.8489C179.907 48.6593 179.977 47.4708 180.111 46.2887L182.007 28.1281C182.556 22.7935 184.103 18.7714 186.646 16.0616C189.19 13.3518 193.111 11.9988 198.411 12.0027C203.707 12.0027 207.362 13.3557 209.376 16.0616C210.922 18.1761 211.695 21.0753 211.695 24.7592C211.692 25.8787 211.632 26.9973 211.516 28.1107L209.619 46.2713C209.067 51.5865 207.501 55.6164 204.923 58.361C202.344 61.1056 198.411 62.4856 193.123 62.5011ZM193.923 54.9632C194.659 54.9858 195.389 54.8159 196.04 54.4703C196.624 54.1432 197.091 53.64 197.373 53.0323C197.668 52.4369 197.895 51.8107 198.052 51.1652C198.223 50.424 198.347 49.6725 198.423 48.9154L200.852 25.5072C200.916 24.678 200.945 23.9068 200.945 23.1878V22.6544C200.961 22.2226 200.884 21.7924 200.718 21.3932C200.553 20.9939 200.304 20.6349 199.988 20.3406C199.671 20.0463 199.295 19.8235 198.885 19.6875C198.475 19.5514 198.04 19.5053 197.611 19.5522C196.883 19.5285 196.161 19.6902 195.512 20.0219C194.938 20.3405 194.481 20.8342 194.207 21.4309C193.924 22.0165 193.704 22.6308 193.552 23.2632C193.391 23.9979 193.273 24.7414 193.198 25.4898L190.769 48.898C190.688 49.8257 190.647 50.6955 190.647 51.5073V51.803C190.617 52.6306 190.91 53.4375 191.465 54.0528C191.788 54.3653 192.175 54.6047 192.599 54.7547C193.024 54.9048 193.475 54.962 193.923 54.9226V54.9632Z" fill="#002B79"/>
<path d="M214.785 61.817L219.94 12.687H230.58L225.443 61.817H214.785Z" fill="#002B79"/>
<path d="M232.863 61.817L238.018 12.687H245.515L253.274 36.7214L255.79 12.687H264.656L259.495 61.817H252.334L244.715 36.0082L241.99 61.817H232.863Z" fill="#002B79"/>
<path d="M271.419 61.817L275.744 20.5671H268.131L268.96 12.687H294.798L293.969 20.5671H286.431L282.076 61.817H271.419Z" fill="#002B79"/>
<path d="M293.916 61.817L299.082 12.687H321L320.229 20.0046H308.969L307.693 32.3088H316.286L315.515 39.7482H306.893L305.35 54.5632H316.733L315.962 61.7938L293.916 61.817Z" fill="#002B79"/>
<path d="M75.6925 61.817C73.6998 61.8813 71.7182 61.4968 69.8941 60.6921C68.4308 60.0114 67.2151 58.893 66.4151 57.4913C65.5817 55.94 65.0449 54.247 64.8321 52.4989C64.7013 51.5381 64.6373 50.5694 64.6408 49.5997C64.6444 48.3952 64.7277 47.1923 64.8901 45.9989L66.4846 30.8766C66.68 28.6134 67.1413 26.3811 67.8589 24.2258C68.4753 22.417 69.4057 20.7309 70.6073 19.245C71.8175 17.7905 73.3865 16.6772 75.1591 16.0153C77.2763 15.2473 79.5177 14.8797 81.7693 14.931C83.8704 14.8758 85.9649 15.1918 87.9562 15.8645C89.4694 16.379 90.7981 17.3267 91.7773 18.5898C92.6554 19.8375 93.2491 21.2626 93.5169 22.7646C93.6856 23.7373 93.767 24.7231 93.7604 25.7102C93.7604 26.5336 93.714 27.4034 93.627 28.3195L93.3197 31.1259H83.6654L84.0249 27.6063C84.1176 26.5626 84.1582 25.6174 84.1582 24.7709C84.1909 24.0205 83.931 23.2867 83.4334 22.724C83.131 22.4427 82.773 22.2278 82.3826 22.093C81.9921 21.9582 81.5778 21.9065 81.1662 21.9412C80.5652 21.9255 79.969 22.0527 79.4267 22.3123C78.9824 22.5263 78.5875 22.8304 78.267 23.2053C77.9451 23.6313 77.6999 24.11 77.5422 24.6201C77.3575 25.1455 77.2141 25.6844 77.1132 26.2321C77.032 26.7076 76.9566 27.3106 76.8812 28.047L74.7358 48.6661C74.6836 49.2866 74.6546 49.8838 74.6546 50.4521C74.6546 50.8927 74.6546 51.316 74.7068 51.7161C74.7485 52.5303 75.0748 53.304 75.6288 53.9021C75.9418 54.1973 76.3126 54.4244 76.7177 54.5691C77.1229 54.7138 77.5537 54.773 77.9829 54.7429C80.6888 54.7429 82.2641 52.6342 82.7086 48.4168L83.2305 43.4418H79.0266L79.6529 37.5274H92.7689L90.293 61.1733H83.7465L83.5842 57.2652C81.9026 60.3036 79.2721 61.8208 75.6925 61.817Z" fill="#002B79"/>
<path d="M98.9277 61.1616L103.711 15.5745H113.609L111.684 34.0482H119.002L120.921 15.5745H130.819L126.035 61.1616H116.137L118.26 41.1455H110.942L108.826 61.1616H98.9277Z" fill="#002B79"/>
<path d="M19.5763 35.0398L18.8979 41.5572L18.8573 41.9921V42.0037L18.2601 47.6108L9.55664 36.0603L10.2467 29.5139L19.5763 35.0398Z" fill="#002B79"/>
<path d="M29.1309 28.0358L29.1898 28.0063C29.1719 28.0194 29.152 28.0294 29.1309 28.0358Z" fill="#002B79"/>
<path d="M40.3276 15.5745L39.9913 18.7984L29.1309 28.0353L30.4297 15.5745H40.3276Z" fill="#002B79"/>
<path d="M38.3687 34.2628L26.8066 50.22L27.7692 41.1513L28.5636 33.7409L28.7027 32.3609C28.8245 32.1811 28.9463 31.9956 29.0738 31.8158C29.3145 31.6403 29.5413 31.4464 29.7522 31.236C30.0828 30.9461 30.3959 30.6562 30.7032 30.3372C30.7668 30.3369 30.829 30.3188 30.8829 30.2851C31.1728 30.0705 31.4628 29.8444 31.7121 29.6182C31.7735 29.6011 31.8308 29.5715 31.8803 29.5313L32.1354 29.2703C32.184 29.2881 32.236 29.2942 32.2874 29.2881C32.3387 29.2821 32.388 29.2641 32.4311 29.2355L32.7732 28.9688C32.8615 28.9602 32.9448 28.9236 33.011 28.8644C33.1559 28.7369 33.2893 28.6035 33.4284 28.4644C34.1887 27.8953 34.9111 27.2774 35.5912 26.6147C35.824 26.4654 36.0218 26.2676 36.1711 26.0348C36.2001 25.9884 36.2175 25.9362 36.2465 25.8899C36.2755 25.8435 36.3798 25.7275 36.4552 25.6521C36.5275 25.6769 36.6052 25.6813 36.6798 25.665C36.7545 25.6486 36.8232 25.6121 36.8785 25.5594C37.0073 25.449 37.1293 25.3308 37.2438 25.2056C37.2927 25.2428 37.3495 25.2684 37.4097 25.2805C37.47 25.2925 37.5322 25.2907 37.5917 25.2752C37.9897 25.0953 38.3249 24.8005 38.5542 24.4287C38.6415 24.4568 38.7357 24.4549 38.8219 24.4234C38.908 24.3919 38.9812 24.3325 39.0297 24.2547C39.1979 23.988 39.3602 23.7271 39.5052 23.4487L38.3687 34.2628Z" fill="#002B79"/>
<path d="M63.0869 9.27746L67.0357 0L56.4941 1.26406C58.1289 2.01226 59.5719 3.12255 60.7141 4.51088C61.8564 5.89922 62.6678 7.52921 63.0869 9.27746Z" fill="#002B79"/>
<path d="M32.2682 29.0268L22.9559 36.9823L17.3547 33.7641L0 23.385L23.5821 54.6674L58.7437 6.1521L32.2682 29.0268Z" fill="#002B79"/>
<path d="M48.6842 24.5216L44.8398 61.1618H54.7145L59.4634 15.9052L59.6142 13.9395L59.9447 10.2981L48.6842 24.5216Z" fill="#002B79"/>
<path d="M11.806 15.5745L11.7249 16.3283H11.7075L10.6348 26.5509L19.9644 32.1347L21.6054 16.3283L21.7967 15.5745H11.806Z" fill="#002B79"/>
<path d="M16.3684 59.5729L17.1221 52.4409L8.42453 40.8962L6.37769 60.4079L6.26172 60.9472H16.2002L16.264 60.4079H16.2756L16.3684 59.5729Z" fill="#002B79"/>
</svg>
